<svg version="1.2" xmlns="http://www.w3.org/2000/svg" viewBox="0 0 1200 768" width="1200" height="768">
	<title>4102879_971-ai</title>
	<defs>
		<radialGradient id="g1" cx="132.4" cy="-204.3" r="1592.9" gradientUnits="userSpaceOnUse">
			<stop offset=".004" stop-color="#4c02f1"/>
			<stop offset="1" stop-color="#06044a"/>
		</radialGradient>
		<linearGradient id="g2" x1="962.1" y1="594.7" x2="1027.3" y2="594.7" gradientUnits="userSpaceOnUse">
			<stop offset="0" stop-color="#e39a65"/>
			<stop offset="1" stop-color="#e95f8d"/>
		</linearGradient>
		<linearGradient id="g3" x1="872.8" y1="492.8" x2="982.4" y2="492.8" gradientUnits="userSpaceOnUse">
			<stop offset="0" stop-color="#e39a65"/>
			<stop offset="1" stop-color="#e95f8d"/>
		</linearGradient>
		<linearGradient id="g4" x1="150.4" y1="529.5" x2="259.9" y2="529.5" gradientUnits="userSpaceOnUse">
			<stop offset="0" stop-color="#e39a65"/>
			<stop offset="1" stop-color="#e95f8d"/>
		</linearGradient>
		<linearGradient id="g5" x1="277.9" y1="383.6" x2="862.6" y2="383.6" gradientUnits="userSpaceOnUse">
			<stop offset="0" stop-color="#e39a65"/>
			<stop offset="1" stop-color="#e95f8d"/>
		</linearGradient>
		<radialGradient id="g6" cx="600.9" cy="121.2" r="446.6" gradientUnits="userSpaceOnUse">
			<stop offset="0" stop-color="#e39a65"/>
			<stop offset=".474" stop-color="#a92ffb"/>
			<stop offset=".742" stop-color="#6507fa"/>
			<stop offset=".802" stop-color="#0d0c6f"/>
		</radialGradient>
		<radialGradient id="g7" cx="327.7" cy="479.9" r="488.3" gradientUnits="userSpaceOnUse">
			<stop offset="0" stop-color="#e39a65"/>
			<stop offset=".474" stop-color="#a92ffb"/>
			<stop offset=".683" stop-color="#6507fa"/>
			<stop offset=".738" stop-color="#0d0c6f"/>
		</radialGradient>
		<radialGradient id="g8" cx="372.7" cy="381.8" r="437.9" gradientUnits="userSpaceOnUse">
			<stop offset="0" stop-color="#e39a65"/>
			<stop offset=".474" stop-color="#a92ffb"/>
			<stop offset=".726" stop-color="#6507fa"/>
			<stop offset="1" stop-color="#3919bb"/>
		</radialGradient>
		<radialGradient id="g9" cx="481.8" cy="214.4" r="446.7" gradientUnits="userSpaceOnUse">
			<stop offset="0" stop-color="#e39a65"/>
			<stop offset=".474" stop-color="#a92ffb"/>
			<stop offset=".726" stop-color="#6507fa"/>
			<stop offset="1" stop-color="#3919bb"/>
		</radialGradient>
		<linearGradient id="g10" x1="530.9" y1="139.9" x2="888.8" y2="139.9" gradientUnits="userSpaceOnUse">
			<stop offset="0" stop-color="#3919bb"/>
			<stop offset="1" stop-color="#6507fa"/>
		</linearGradient>
		<radialGradient id="g11" cx="318.7" cy="119" r="695.7" gradientUnits="userSpaceOnUse">
			<stop offset="0" stop-color="#e39a65"/>
			<stop offset=".474" stop-color="#a92ffb"/>
			<stop offset=".726" stop-color="#6507fa"/>
			<stop offset="1" stop-color="#3919bb"/>
		</radialGradient>
		<linearGradient id="g12" x1="286.8" y1="336.5" x2="440.4" y2="336.5" gradientUnits="userSpaceOnUse">
			<stop offset="0" stop-color="#e39a65"/>
			<stop offset="1" stop-color="#e95f8d"/>
		</linearGradient>
		<radialGradient id="g13" cx="300.4" cy="255.3" r="330.7" gradientUnits="userSpaceOnUse">
			<stop offset="0" stop-color="#e39a65"/>
			<stop offset=".153" stop-color="#a92ffb"/>
			<stop offset=".409" stop-color="#3919bb"/>
			<stop offset=".931" stop-color="#3919bb"/>
		</radialGradient>
		<linearGradient id="g14" x1="306.3" y1="174.8" x2="424.9" y2="174.8" gradientUnits="userSpaceOnUse">
			<stop offset="0" stop-color="#e39a65"/>
			<stop offset=".252" stop-color="#a92ffb"/>
			<stop offset=".556" stop-color="#3919bb"/>
		</linearGradient>
		<linearGradient id="g15" x1="317.4" y1="180.5" x2="413.8" y2="180.5" gradientUnits="userSpaceOnUse">
			<stop offset="0" stop-color="#4f1fec"/>
			<stop offset="1" stop-color="#a92ffb"/>
		</linearGradient>
		<linearGradient id="g16" x1="315.1" y1="180.5" x2="411.5" y2="180.5" gradientUnits="userSpaceOnUse">
			<stop offset="0" stop-color="#4f1fec"/>
			<stop offset="1" stop-color="#a92ffb"/>
		</linearGradient>
		<linearGradient id="g17" x1="317.4" y1="180.5" x2="438.9" y2="180.5" gradientUnits="userSpaceOnUse">
			<stop offset="0" stop-color="#131060"/>
			<stop offset=".607" stop-color="#740df8"/>
			<stop offset="1" stop-color="#e8975b"/>
		</linearGradient>
		<radialGradient id="g18" cx="291.5" cy="180.8" r="216.3" gradientUnits="userSpaceOnUse">
			<stop offset="0" stop-color="#e39a65"/>
			<stop offset=".252" stop-color="#a92ffb"/>
			<stop offset=".736" stop-color="#3919bb"/>
		</radialGradient>
		<linearGradient id="g19" x1="358" y1="233.9" x2="374.8" y2="233.9" gradientUnits="userSpaceOnUse">
			<stop offset="0" stop-color="#131060"/>
			<stop offset=".607" stop-color="#740df8"/>
			<stop offset="1" stop-color="#e8975b"/>
		</linearGradient>
	</defs>
	<style>
		.s0 { fill: url(#g1) } 
		.s1 { fill: #ffffff } 
		.s2 { fill: url(#g2) } 
		.s3 { fill: url(#g3) } 
		.s4 { fill: url(#g4) } 
		.s5 { opacity: .6;fill: #020230 } 
		.s6 { fill: url(#g5) } 
		.s7 { fill: url(#g6) } 
		.s8 { fill: url(#g7) } 
		.s9 { fill: url(#g8) } 
		.s10 { fill: #06033e } 
		.s11 { fill: url(#g9) } 
		.s12 { fill: url(#g10) } 
		.s13 { opacity: .4;fill: #06033e } 
		.s14 { opacity: .5;fill: #06033e } 
		.s15 { fill: url(#g11) } 
		.s16 { fill: #e8975b } 
		.s17 { fill: #f8359e } 
		.s18 { fill: url(#g12) } 
		.s19 { fill: url(#g13) } 
		.s20 { fill: url(#g14) } 
		.s21 { fill: url(#g15) } 
		.s22 { fill: url(#g16) } 
		.s23 { fill: url(#g17) } 
		.s24 { fill: url(#g18) } 
		.s25 { fill: #0c0a78 } 
		.s26 { fill: url(#g19) } 
		.s27 { opacity: .5;fill: #ffffff } 
	</style>
	<g id="_Artboards_">
	</g>
	<g id="321353356351 1">
		<path id="&lt;Path&gt;" class="s0" d="m1200 900h-1200v-900h1200z"/>
		<g id="&lt;Group&gt;">
			<path id="&lt;Compound Path&gt;" fill-rule="evenodd" class="s1" d="m527.2 819.5v-19.4h6.1q5.1 0 5.1 5.5 0 1.6-0.4 2.6-0.4 1.1-1.2 1.7-0.7 0.6-1.7 0.9-0.9 0.2-2.2 0.2h-1.7v8.5zm3.9-11.2h1.3q1.3 0 1.8-0.6 0.4-0.6 0.4-2.1 0-0.8-0.1-1.2 0-0.4-0.2-0.8-0.3-0.4-0.7-0.6-0.5-0.2-1.2-0.2h-1.3z"/>
			<path id="&lt;Compound Path&gt;" fill-rule="evenodd" class="s1" d="m540.3 819.5v-19.4h4.9q1.6 0 2.7 0.2 1.1 0.2 2 0.8 0.8 0.6 1.3 1.6 0.4 1 0.4 2.5 0 1.9-0.6 3.1-0.5 1.1-1.8 1.7l2.7 9.5h-4l-2.3-8.8h-1.3v8.8zm3.9-11.2h1q1.4 0 2-0.6 0.6-0.7 0.6-2.2 0-1.4-0.5-2.1-0.5-0.7-1.9-0.7h-1.2z"/>
			<path id="&lt;Compound Path&gt;" fill-rule="evenodd" class="s1" d="m559.6 819.8q-1.5 0-2.6-0.5-1.2-0.4-1.8-1.3-0.7-0.8-1-2-0.3-1.1-0.3-2.7v-7.1q0-1.6 0.3-2.7 0.3-1.2 1-2 0.6-0.8 1.8-1.3 1.1-0.4 2.6-0.4 3.1 0 4.5 1.6 1.3 1.6 1.3 4.8v7.1q0 3.2-1.3 4.8-1.4 1.7-4.5 1.7zm-0.7-3q0.3 0.1 0.7 0.1 0.5 0 0.8-0.1 0.3-0.2 0.5-0.4 0.2-0.2 0.3-0.6 0.1-0.4 0.1-0.7 0.1-0.3 0.1-0.8v-9.1q0-0.5-0.1-0.8 0-0.3-0.1-0.7-0.1-0.3-0.3-0.5-0.2-0.3-0.5-0.4-0.3-0.1-0.8-0.1-0.4 0-0.7 0.1-0.3 0.1-0.5 0.4-0.2 0.2-0.3 0.5-0.1 0.4-0.1 0.7 0 0.3 0 0.8v9.1q0 0.5 0 0.8 0 0.3 0.1 0.7 0.1 0.4 0.3 0.6 0.2 0.2 0.5 0.4z"/>
			<path id="&lt;Compound Path&gt;" class="s1" d="m573 819.8q-1.5 0-2.5-0.5-1-0.5-1.6-1.4-0.6-0.9-0.9-2.1-0.3-1.2-0.3-2.8v-6.4q0-1.3 0.2-2.3 0.1-1 0.6-1.9 0.4-0.8 1-1.4 0.7-0.6 1.6-0.9 1-0.3 2.3-0.3 1.5 0 2.6 0.4 1.1 0.4 1.7 1.1 0.7 0.8 1 1.8 0.3 1 0.3 2.4v1.1h-3.9v-1.3q0-0.5 0-0.9 0-0.3-0.1-0.7-0.1-0.4-0.3-0.6-0.2-0.2-0.5-0.3-0.3-0.1-0.7-0.1-0.5 0-0.8 0.1-0.4 0.2-0.5 0.4-0.2 0.3-0.3 0.7-0.1 0.4-0.1 0.8-0.1 0.3-0.1 0.9v8.4q0 1.4 0.4 2.2 0.4 0.7 1.5 0.7 1 0 1.4-0.8 0.5-0.8 0.5-2.3v-1.9h-1.9v-2.4h5.4v10h-2.6l-0.2-1.8q-0.9 2.1-3.2 2.1z"/>
			<path id="&lt;Compound Path&gt;" fill-rule="evenodd" class="s1" d="m581.7 819.5v-19.4h4.9q1.6 0 2.7 0.2 1.1 0.2 1.9 0.8 0.9 0.6 1.3 1.6 0.5 1 0.5 2.5 0 1.9-0.6 3.1-0.5 1.1-1.8 1.7l2.7 9.5h-4.1l-2.2-8.8h-1.3v8.8zm3.9-11.2h1q1.4 0 2-0.6 0.6-0.7 0.6-2.2 0-1.4-0.5-2.1-0.5-0.7-1.9-0.7h-1.2z"/>
			<path id="&lt;Compound Path&gt;" fill-rule="evenodd" class="s1" d="m594.6 819.5l3.8-19.4h4.4l3.7 19.4h-3.6l-0.7-4.3h-3.1l-0.7 4.3zm4.8-6.8h2.3l-1.2-7.7z"/>
			<path id="&lt;Compound Path&gt;" class="s1" d="m608.4 819.5l0.3-19.4h4.2l2.4 12.4 2.6-12.4h4.1l0.3 19.4h-2.9l-0.3-13.1-2.5 13.1h-2.4l-2.6-13.2-0.2 13.2z"/>
			<path id="&lt;Compound Path&gt;" class="s1" d="m625.1 819.5l0.3-19.4h4.1l2.5 12.4 2.6-12.4h4l0.3 19.4h-2.9l-0.2-13.1-2.5 13.1h-2.5l-2.6-13.2-0.2 13.2z"/>
			<path id="&lt;Compound Path&gt;" class="s1" d="m641.8 819.5v-19.4h4v19.4z"/>
			<path id="&lt;Compound Path&gt;" class="s1" d="m648.7 819.5v-19.4h2.8l4.3 10.1v-10.1h3.3v19.4h-2.7l-4.3-10.7v10.7z"/>
			<path id="&lt;Compound Path&gt;" class="s1" d="m666.9 819.8q-1.4 0-2.4-0.5-1.1-0.5-1.7-1.4-0.6-0.9-0.9-2.1-0.2-1.2-0.2-2.8v-6.4q0-1.3 0.1-2.3 0.2-1 0.6-1.9 0.4-0.8 1.1-1.4 0.6-0.6 1.6-0.9 1-0.3 2.3-0.3 1.5 0 2.6 0.4 1.1 0.4 1.7 1.1 0.6 0.8 0.9 1.8 0.3 1 0.3 2.4v1.1h-3.8v-1.3q0-0.5 0-0.9-0.1-0.3-0.2-0.7-0.1-0.4-0.2-0.6-0.2-0.2-0.5-0.3-0.3-0.1-0.8-0.1-0.5 0-0.8 0.1-0.3 0.2-0.5 0.4-0.2 0.3-0.3 0.7-0.1 0.4-0.1 0.8 0 0.3 0 0.9v8.4q0 1.4 0.4 2.2 0.4 0.7 1.4 0.7 1.1 0 1.5-0.8 0.4-0.8 0.4-2.3v-1.9h-1.9v-2.4h5.5v10h-2.6l-0.3-1.8q-0.8 2.1-3.2 2.1z"/>
		</g>
		<path id="&lt;Compound Path&gt;" fill-rule="evenodd" class="s2" d="m994.7 633c-2.4 0-4.8-0.6-6.9-1.9l-23.5-13.5c-1.4-0.8-2.2-2.2-2.2-3.8 0-1.5 0.8-2.9 2.2-3.7l23.5-13.6c4.3-2.5 9.6-2.5 13.9 0l23.5 13.6c1.3 0.8 2.1 2.2 2.1 3.7 0 1.6-0.8 3-2.1 3.8l-23.5 13.5c-2.2 1.3-4.6 1.9-7 1.9zm0-34.6c-1.7 0-3.5 0.4-5.1 1.3l-23.4 13.6c-0.3 0.1-0.4 0.4-0.4 0.5 0 0.2 0.1 0.4 0.4 0.6l23.4 13.5q0 0 0 0c3.2 1.8 7.1 1.8 10.2 0l23.5-13.5c0.3-0.2 0.3-0.4 0.3-0.6 0-0.1 0-0.4-0.3-0.5l-23.5-13.6c-1.5-0.9-3.3-1.3-5.1-1.3z"/>
		<path id="&lt;Compound Path&gt;" fill-rule="evenodd" class="s3" d="m927.6 556.1c-3.9 0-7.8-1-11.3-3l-40.4-23.3c-1.9-1.1-3.1-3.1-3.1-5.4 0-2.2 1.2-4.2 3.1-5.3l40.4-23.3c7-4 15.6-4 22.6 0l40.4 23.3c1.9 1.1 3.1 3.1 3.1 5.3 0 2.3-1.2 4.3-3.1 5.4l-40.4 23.3c-3.5 2-7.4 3-11.3 3zm-9.5-6.2c5.9 3.3 13.1 3.3 18.9 0l40.4-23.4c1.1-0.6 1.2-1.6 1.2-2.1 0-0.4-0.1-1.4-1.2-2l-40.4-23.4c-5.8-3.3-13-3.3-18.9 0l-40.4 23.4c-1 0.6-1.2 1.6-1.2 2 0 0.5 0.2 1.5 1.2 2.1z"/>
		<path id="&lt;Compound Path&gt;" fill-rule="evenodd" class="s4" d="m205.1 592.8c-3.9 0-7.8-1-11.3-3l-40.4-23.3c-1.9-1.1-3-3.1-3-5.4 0-2.2 1.1-4.2 3-5.3l40.4-23.3c7-4 15.7-4 22.7 0l40.4 23.3c1.9 1.1 3 3.1 3 5.4 0 2.2-1.1 4.2-3 5.3l-40.4 23.3c-3.5 2-7.4 3-11.4 3zm0-59.6c-3.2 0-6.5 0.9-9.4 2.5l-40.4 23.4c-1.1 0.6-1.2 1.6-1.2 2.1 0 0.4 0.1 1.4 1.2 2l40.4 23.4c5.8 3.3 13.1 3.3 18.9 0l40.4-23.4c1.1-0.6 1.2-1.6 1.2-2 0-0.5-0.1-1.5-1.2-2.1l-40.4-23.4c-2.9-1.6-6.2-2.5-9.5-2.5z"/>
		<g id="&lt;Group&gt;">
			<path id="&lt;Path&gt;" class="s5" d="m614.2 694.6l-288.8-166.8c-4.2-2.4-3.7-6.7 1.2-9.5l185.4-107c4.8-2.8 12.2-3.1 16.4-0.7l288.8 166.8c4.2 2.4 3.7 6.6-1.1 9.4l-185.4 107.1c-4.9 2.8-12.2 3.1-16.5 0.7z"/>
			<path id="&lt;Compound Path&gt;" fill-rule="evenodd" class="s6" d="m620.9 724.7c-3.4 0-6.7-0.7-9.1-2.2l-329.7-190.3c-2.7-1.6-4.2-3.8-4.2-6.3 0-2.9 2-5.7 5.5-7.7l224.8-131.7c6.1-3.6 15.2-3.9 20.6-0.8l329.7 190.3c2.7 1.6 4.1 3.8 4.1 6.4 0 2.8-2 5.7-5.5 7.7l-224.7 131.7c-3.4 1.9-7.5 2.9-11.5 2.9zm-101.2-337.4c-3.3 0-6.9 0.8-9.7 2.4l-224.7 131.7c-2.3 1.3-3.7 3-3.7 4.5 0 1.4 1.3 2.5 2.4 3.1l329.6 190.3q0 0 0 0c4.2 2.5 12 2.1 16.9-0.8l224.7-131.6c2.3-1.4 3.7-3 3.7-4.5 0-1.5-1.2-2.5-2.3-3.1l-329.7-190.4c-1.9-1.1-4.4-1.6-7.2-1.6z"/>
			<path id="&lt;Path&gt;" class="s7" d="m894 297.8l-287.7-166.2c-2-1.1-4.1-1.3-5.9-0.8q0 0 0 0l-5.4 1.9 1.9 0.4c-0.8 0.9-1.4 2-1.8 3.3l-65 211.3c-1.6 5.2 0.7 11.6 5.3 14.2l287.7 166.1q1 0.6 2.1 0.9l-0.7 1.5 5.1-1.8c2-0.8 3.8-2.7 4.6-5.4l65.1-211.2c1.6-5.3-0.8-11.6-5.3-14.2z"/>
			<path id="&lt;Path&gt;" class="s8" d="m812.8 535.9l0.1 0.1-284.2-164.1c-4.2-2.4-11.5-2.1-16.3 0.7l-183.6 106-6.2-2.3 1.7 8.6h0.1c0.2 1.3 1.1 2.5 2.7 3.4l286.8 165.6c4.2 2.4 11.5 2.1 16.3-0.7l184.1-106.3c2.3-1.3 3.6-2.9 3.9-4.5l1.8-8.4z"/>
			<path id="&lt;Path&gt;" class="s9" d="m614.2 646.3l-288.8-166.7c-4.2-2.5-3.7-6.7 1.2-9.5l185.4-107.1c4.8-2.8 12.2-3.1 16.4-0.6l288.8 166.7c4.2 2.5 3.7 6.7-1.1 9.5l-185.4 107.1c-4.9 2.8-12.2 3.1-16.5 0.6z"/>
			<path id="&lt;Path&gt;" class="s1" d="m816.1 536.4l-185.4 107c-4.9 2.8-12.2 3.1-16.5 0.7l-288.8-166.8c-1.5-0.8-2.3-1.9-2.6-3-0.6 2 0.2 3.9 2.6 5.3l288.8 166.7c4.3 2.5 11.6 2.2 16.5-0.6l185.4-107.1c3.2-1.8 4.4-4.3 3.8-6.5-0.5 1.5-1.7 3-3.8 4.3z"/>
			<g id="&lt;Group&gt;" style="opacity: .4">
				<path id="&lt;Path&gt;" class="s10" d="m463.2 452.5l-9.8-5.6c-0.8-0.5-0.7-1.3 0.2-1.8l11.5-6.6c0.9-0.6 2.3-0.6 3.1-0.2l9.7 5.7c0.8 0.4 0.7 1.2-0.2 1.7l-11.5 6.7c-0.9 0.5-2.3 0.6-3 0.1z"/>
				<path id="&lt;Path&gt;" class="s10" d="m478.2 461.2l-9.7-5.6c-0.8-0.5-0.7-1.3 0.2-1.8l11.5-6.6c0.9-0.6 2.3-0.6 3.1-0.2l9.7 5.7c0.8 0.4 0.7 1.2-0.2 1.7l-11.5 6.7c-0.9 0.5-2.3 0.5-3.1 0.1z"/>
				<path id="&lt;Path&gt;" class="s10" d="m493.3 469.9l-9.8-5.6c-0.8-0.5-0.7-1.3 0.3-1.8l11.5-6.6c0.9-0.6 2.2-0.6 3-0.2l9.8 5.7c0.8 0.4 0.7 1.2-0.3 1.7l-11.5 6.7c-0.9 0.5-2.2 0.5-3 0.1z"/>
				<path id="&lt;Path&gt;" class="s10" d="m514.1 462.7l-9.7-5.6c-0.8-0.5-0.7-1.3 0.2-1.8l9.6-5.6c0.9-0.5 2.3-0.5 3.1-0.1l9.8 5.6c0.7 0.5 0.6 1.3-0.3 1.8l-9.6 5.6c-0.9 0.5-2.3 0.6-3.1 0.1z"/>
				<path id="&lt;Path&gt;" class="s10" d="m529.2 471.4l-9.8-5.6c-0.8-0.5-0.7-1.3 0.2-1.8l9.7-5.6c0.9-0.5 2.3-0.5 3.1-0.1l9.7 5.6c0.8 0.5 0.7 1.3-0.2 1.8l-9.7 5.6c-0.9 0.5-2.2 0.6-3 0.1z"/>
				<path id="&lt;Path&gt;" class="s10" d="m544.2 480.1l-9.7-5.6c-0.8-0.5-0.7-1.3 0.2-1.8l9.7-5.6c0.9-0.5 2.2-0.5 3-0.1l9.8 5.6c0.8 0.5 0.7 1.3-0.2 1.8l-9.7 5.6c-0.9 0.5-2.3 0.6-3.1 0.1z"/>
				<path id="&lt;Path&gt;" class="s10" d="m559.3 488.8l-9.8-5.6c-0.7-0.5-0.6-1.3 0.3-1.8l9.6-5.6c0.9-0.5 2.3-0.6 3.1-0.1l9.7 5.6c0.8 0.5 0.7 1.3-0.2 1.8l-9.7 5.6c-0.9 0.5-2.2 0.5-3 0.1z"/>
				<path id="&lt;Path&gt;" class="s10" d="m574.4 497.5l-9.8-5.6c-0.8-0.5-0.7-1.3 0.2-1.8l9.7-5.6c0.9-0.5 2.3-0.6 3-0.1l9.8 5.6c0.8 0.5 0.7 1.3-0.2 1.8l-9.7 5.6c-0.9 0.5-2.3 0.5-3 0.1z"/>
				<path id="&lt;Path&gt;" class="s10" d="m589.4 506.2l-9.7-5.6c-0.8-0.5-0.7-1.3 0.2-1.8l9.6-5.6c1-0.5 2.3-0.6 3.1-0.1l9.8 5.6c0.7 0.5 0.6 1.3-0.3 1.8l-9.6 5.6c-0.9 0.5-2.3 0.5-3.1 0.1z"/>
				<path id="&lt;Path&gt;" class="s10" d="m604.5 514.9l-9.8-5.6c-0.8-0.5-0.7-1.3 0.2-1.8l9.7-5.6c0.9-0.5 2.3-0.6 3.1-0.1l9.7 5.6c0.8 0.5 0.7 1.3-0.2 1.8l-9.7 5.6c-0.9 0.5-2.2 0.5-3 0.1z"/>
				<path id="&lt;Path&gt;" class="s10" d="m619.5 523.6l-9.7-5.7c-0.8-0.4-0.7-1.2 0.2-1.7l9.7-5.6c0.9-0.5 2.2-0.6 3-0.1l9.8 5.6c0.8 0.5 0.7 1.3-0.2 1.8l-9.7 5.6c-0.9 0.5-2.3 0.5-3.1 0.1z"/>
				<path id="&lt;Path&gt;" class="s10" d="m634.6 532.3l-9.8-5.7c-0.7-0.4-0.6-1.2 0.3-1.7l9.6-5.6c0.9-0.5 2.3-0.6 3.1-0.1l9.7 5.6c0.8 0.5 0.7 1.2-0.2 1.8l-9.6 5.5c-1 0.6-2.3 0.6-3.1 0.2z"/>
				<path id="&lt;Path&gt;" class="s10" d="m649.7 541l-9.8-5.7c-0.8-0.4-0.7-1.2 0.2-1.7l9.7-5.6c0.9-0.5 2.3-0.6 3-0.1l9.8 5.6c0.8 0.5 0.7 1.2-0.2 1.8l-9.7 5.5c-0.9 0.6-2.3 0.6-3 0.2z"/>
				<path id="&lt;Path&gt;" class="s10" d="m536.3 458.6l-9.7-5.6c-0.8-0.5-0.7-1.3 0.2-1.8l9.6-5.6c0.9-0.5 2.3-0.6 3.1-0.1l9.7 5.6c0.8 0.5 0.7 1.3-0.2 1.8l-9.6 5.6c-0.9 0.5-2.3 0.5-3.1 0.1z"/>
				<path id="&lt;Path&gt;" class="s10" d="m521 449.8l-9.7-5.7c-0.8-0.4-0.7-1.2 0.2-1.7l9.6-5.6c1-0.5 2.3-0.6 3.1-0.1l9.8 5.6c0.7 0.5 0.6 1.2-0.3 1.8l-9.6 5.5c-0.9 0.6-2.3 0.6-3.1 0.2z"/>
				<path id="&lt;Path&gt;" class="s10" d="m505.7 440.9l-21-12.1c-0.8-0.4-0.7-1.2 0.2-1.8l9.7-5.5c0.9-0.6 2.3-0.6 3-0.2l21 12.2c0.8 0.4 0.7 1.2-0.2 1.7l-9.6 5.6c-0.9 0.5-2.3 0.6-3.1 0.1z"/>
				<path id="&lt;Path&gt;" class="s10" d="m516.4 430.2l-17-9.9c-0.8-0.4-0.7-1.2 0.2-1.7l9.6-5.6c1-0.5 2.3-0.6 3.1-0.1l17 9.8c0.8 0.5 0.7 1.3-0.2 1.8l-9.6 5.6c-0.9 0.5-2.3 0.5-3.1 0.1z"/>
				<path id="&lt;Path&gt;" class="s10" d="m551.4 467.3l-9.8-5.6c-0.8-0.5-0.7-1.3 0.2-1.8l9.7-5.6c0.9-0.5 2.3-0.6 3-0.1l9.8 5.6c0.8 0.5 0.7 1.3-0.2 1.8l-9.7 5.6c-0.9 0.5-2.3 0.5-3 0.1z"/>
				<path id="&lt;Path&gt;" class="s10" d="m566.4 476l-9.7-5.6c-0.8-0.5-0.7-1.3 0.2-1.8l9.7-5.6c0.9-0.5 2.2-0.6 3-0.1l9.8 5.6c0.7 0.5 0.6 1.3-0.3 1.8l-9.6 5.6c-0.9 0.5-2.3 0.5-3.1 0.1z"/>
				<path id="&lt;Path&gt;" class="s10" d="m581.5 484.7l-9.8-5.6c-0.7-0.5-0.7-1.3 0.3-1.8l9.6-5.6c0.9-0.5 2.3-0.6 3.1-0.1l9.7 5.6c0.8 0.5 0.7 1.3-0.2 1.8l-9.7 5.6c-0.9 0.5-2.2 0.5-3 0.1z"/>
				<path id="&lt;Path&gt;" class="s10" d="m596.5 493.4l-9.7-5.7c-0.8-0.4-0.7-1.2 0.2-1.7l9.7-5.6c0.9-0.5 2.2-0.6 3-0.1l9.8 5.6c0.8 0.5 0.7 1.2-0.2 1.8l-9.7 5.5c-0.9 0.6-2.3 0.6-3.1 0.2z"/>
				<path id="&lt;Path&gt;" class="s10" d="m611.6 502.1l-9.7-5.7c-0.8-0.4-0.7-1.2 0.2-1.7l9.6-5.6c0.9-0.5 2.3-0.6 3.1-0.1l9.7 5.6c0.8 0.5 0.7 1.2-0.2 1.8l-9.6 5.5c-0.9 0.6-2.3 0.6-3.1 0.2z"/>
				<path id="&lt;Path&gt;" class="s10" d="m626.7 510.8l-9.8-5.7c-0.8-0.4-0.7-1.2 0.2-1.7l9.7-5.6c0.9-0.5 2.3-0.6 3.1-0.1l9.7 5.6c0.8 0.4 0.7 1.2-0.2 1.8l-9.7 5.5c-0.9 0.6-2.2 0.6-3 0.2z"/>
				<path id="&lt;Path&gt;" class="s10" d="m641.7 519.5l-9.7-5.7c-0.8-0.4-0.7-1.2 0.2-1.7l9.7-5.6c0.9-0.5 2.2-0.6 3-0.1l9.8 5.6c0.7 0.4 0.6 1.2-0.3 1.8l-9.6 5.5c-0.9 0.6-2.3 0.6-3.1 0.2z"/>
				<path id="&lt;Path&gt;" class="s10" d="m656.8 528.2l-9.8-5.7c-0.7-0.4-0.6-1.2 0.3-1.7l9.6-5.6c0.9-0.5 2.3-0.6 3.1-0.1l9.7 5.6c0.8 0.4 0.7 1.2-0.2 1.8l-9.7 5.5c-0.9 0.6-2.2 0.6-3 0.2z"/>
				<path id="&lt;Path&gt;" class="s10" d="m671.8 536.9l-9.7-5.7c-0.8-0.4-0.7-1.2 0.2-1.7l9.7-5.6c0.9-0.5 2.3-0.6 3-0.1l9.8 5.6c0.8 0.4 0.7 1.2-0.2 1.7l-9.7 5.6c-0.9 0.5-2.3 0.6-3.1 0.2z"/>
				<path id="&lt;Path&gt;" class="s10" d="m698.6 552.3l-21.3-12.3c-0.7-0.4-0.6-1.2 0.3-1.7l9.6-5.6c0.9-0.5 2.3-0.6 3.1-0.1l21.3 12.2c0.7 0.5 0.6 1.3-0.3 1.8l-9.6 5.6c-0.9 0.5-2.3 0.6-3.1 0.1z"/>
				<path id="&lt;Path&gt;" class="s10" d="m727.9 535.4l-17.9-10.4c-0.8-0.4-0.7-1.2 0.2-1.8l9.7-5.5c0.9-0.6 2.2-0.6 3-0.2l18 10.4c0.8 0.5 0.7 1.3-0.2 1.8l-9.7 5.6c-0.9 0.5-2.3 0.5-3.1 0.1z"/>
				<path id="&lt;Path&gt;" class="s10" d="m577.7 465.6l-9.7-5.6c-0.8-0.5-0.7-1.3 0.2-1.8l9.7-5.6c0.9-0.5 2.2-0.6 3-0.1l9.8 5.6c0.8 0.5 0.7 1.3-0.2 1.8l-9.7 5.6c-0.9 0.5-2.3 0.5-3.1 0.1z"/>
				<path id="&lt;Path&gt;" class="s10" d="m562.3 456.7l-9.7-5.7c-0.8-0.4-0.7-1.2 0.2-1.7l9.6-5.6c0.9-0.5 2.3-0.6 3.1-0.1l9.7 5.6c0.8 0.5 0.7 1.3-0.2 1.8l-9.6 5.6c-0.9 0.5-2.3 0.5-3.1 0.1z"/>
				<path id="&lt;Path&gt;" class="s10" d="m546.9 447.8l-9.8-5.7c-0.8-0.4-0.7-1.2 0.2-1.7l9.7-5.6c0.9-0.5 2.3-0.6 3.1-0.1l9.7 5.6c0.8 0.4 0.7 1.2-0.2 1.8l-9.7 5.5c-0.9 0.6-2.2 0.6-3 0.2z"/>
				<path id="&lt;Path&gt;" class="s10" d="m531.4 438.9l-9.7-5.7c-0.8-0.4-0.7-1.2 0.2-1.7l9.7-5.6c0.9-0.5 2.2-0.6 3-0.1l9.8 5.6c0.8 0.4 0.7 1.2-0.2 1.7l-9.7 5.6c-0.9 0.6-2.3 0.6-3.1 0.2z"/>
				<path id="&lt;Path&gt;" class="s10" d="m592.8 474.3l-9.8-5.6c-0.7-0.5-0.6-1.3 0.3-1.8l9.6-5.6c0.9-0.5 2.3-0.6 3.1-0.1l9.7 5.6c0.8 0.5 0.7 1.3-0.2 1.8l-9.6 5.6c-0.9 0.5-2.3 0.5-3.1 0.1z"/>
				<path id="&lt;Path&gt;" class="s10" d="m607.9 483l-9.8-5.7c-0.8-0.4-0.7-1.2 0.2-1.7l9.7-5.6c0.9-0.5 2.3-0.6 3-0.1l9.8 5.6c0.8 0.5 0.7 1.3-0.2 1.8l-9.7 5.6c-0.9 0.5-2.3 0.5-3 0.1z"/>
				<path id="&lt;Path&gt;" class="s10" d="m622.9 491.7l-9.7-5.7c-0.8-0.4-0.7-1.2 0.2-1.7l9.7-5.6c0.9-0.5 2.2-0.6 3-0.1l9.8 5.6c0.7 0.5 0.6 1.2-0.3 1.8l-9.6 5.5c-0.9 0.6-2.3 0.6-3.1 0.2z"/>
				<path id="&lt;Path&gt;" class="s10" d="m638 500.4l-9.8-5.7c-0.8-0.4-0.7-1.2 0.2-1.7l9.7-5.6c0.9-0.5 2.3-0.6 3.1-0.1l9.7 5.6c0.8 0.5 0.7 1.2-0.2 1.8l-9.7 5.5c-0.9 0.6-2.2 0.6-3 0.2z"/>
				<path id="&lt;Path&gt;" class="s10" d="m653 509.1l-9.7-5.7c-0.8-0.4-0.7-1.2 0.2-1.7l9.7-5.6c0.9-0.5 2.2-0.6 3-0.1l9.8 5.6c0.8 0.4 0.7 1.2-0.2 1.8l-9.7 5.5c-0.9 0.6-2.3 0.6-3.1 0.2z"/>
				<path id="&lt;Path&gt;" class="s10" d="m668.1 517.8l-9.8-5.7c-0.7-0.4-0.6-1.2 0.3-1.7l9.6-5.6c0.9-0.5 2.3-0.6 3.1-0.1l9.7 5.6c0.8 0.4 0.7 1.2-0.2 1.8l-9.6 5.5c-0.9 0.6-2.3 0.6-3.1 0.2z"/>
				<path id="&lt;Path&gt;" class="s10" d="m683.2 526.5l-9.8-5.7c-0.8-0.4-0.7-1.2 0.2-1.7l9.7-5.6c0.9-0.5 2.3-0.6 3-0.1l9.8 5.6c0.8 0.4 0.7 1.2-0.2 1.8l-9.7 5.5c-0.9 0.6-2.3 0.6-3 0.2z"/>
				<path id="&lt;Path&gt;" class="s10" d="m698.2 535.2l-9.7-5.7c-0.8-0.4-0.7-1.2 0.2-1.7l9.7-5.6c0.9-0.5 2.2-0.6 3-0.1l9.8 5.6c0.7 0.4 0.6 1.2-0.3 1.7l-9.6 5.6c-0.9 0.5-2.3 0.6-3.1 0.2z"/>
				<path id="&lt;Path&gt;" class="s10" d="m713.3 543.8l-9.8-5.6c-0.8-0.4-0.7-1.2 0.3-1.7l9.6-5.6c0.9-0.5 2.3-0.6 3.1-0.2l9.7 5.7c0.8 0.4 0.7 1.2-0.2 1.7l-9.7 5.6c-0.9 0.5-2.2 0.6-3 0.1z"/>
				<path id="&lt;Path&gt;" class="s10" d="m569.8 444.1l-9.7-5.6c-0.8-0.5-0.7-1.3 0.2-1.8l9.6-5.6c0.9-0.5 2.3-0.6 3.1-0.1l9.7 5.6c0.8 0.5 0.7 1.3-0.2 1.8l-9.6 5.6c-0.9 0.5-2.3 0.5-3.1 0.1z"/>
				<path id="&lt;Path&gt;" class="s10" d="m554.8 435.4l-9.7-5.6c-0.8-0.5-0.7-1.2 0.2-1.8l9.7-5.5c0.9-0.6 2.2-0.6 3-0.2l9.8 5.7c0.7 0.4 0.6 1.2-0.3 1.7l-9.6 5.6c-0.9 0.5-2.3 0.6-3.1 0.1z"/>
				<path id="&lt;Path&gt;" class="s10" d="m539.8 426.8l-9.7-5.7c-0.8-0.4-0.7-1.2 0.2-1.7l9.7-5.6c0.9-0.5 2.2-0.6 3-0.1l9.8 5.6c0.8 0.5 0.7 1.3-0.2 1.8l-9.7 5.6c-0.9 0.5-2.3 0.5-3.1 0.1z"/>
				<path id="&lt;Path&gt;" class="s10" d="m524.9 418.1l-9.8-5.6c-0.8-0.5-0.7-1.2 0.2-1.8l9.7-5.5c0.9-0.6 2.3-0.6 3-0.2l9.8 5.7c0.8 0.4 0.7 1.2-0.2 1.7l-9.7 5.6c-0.9 0.5-2.3 0.6-3 0.1z"/>
				<path id="&lt;Path&gt;" class="s10" d="m540.3 409.2l-9.8-5.6c-0.8-0.5-0.7-1.2 0.2-1.8l3.2-1.8c0.9-0.5 2.3-0.6 3.1-0.1l9.7 5.6c0.8 0.4 0.7 1.2-0.2 1.8l-3.2 1.8c-0.9 0.5-2.3 0.6-3 0.1z"/>
				<path id="&lt;Path&gt;" class="s10" d="m559.8 420.5l-9.7-5.6c-0.8-0.5-0.7-1.3 0.2-1.8l3.2-1.8c0.9-0.5 2.3-0.6 3-0.1l9.8 5.6c0.8 0.4 0.7 1.2-0.2 1.7l-3.2 1.9c-0.9 0.5-2.3 0.6-3.1 0.1z"/>
				<path id="&lt;Path&gt;" class="s10" d="m574.7 429.1l-9.7-5.6c-0.8-0.4-0.7-1.2 0.2-1.8l3.2-1.8c0.9-0.5 2.3-0.6 3.1-0.1l9.7 5.6c0.8 0.5 0.7 1.2-0.2 1.8l-3.2 1.8c-0.9 0.5-2.3 0.6-3.1 0.1z"/>
				<path id="&lt;Path&gt;" class="s10" d="m589.7 437.8l-9.8-5.7c-0.8-0.4-0.7-1.2 0.2-1.7l3.2-1.9c0.9-0.5 2.3-0.6 3.1-0.1l9.7 5.6c0.8 0.5 0.7 1.3-0.2 1.8l-3.2 1.8c-0.9 0.5-2.3 0.6-3 0.2z"/>
				<path id="&lt;Path&gt;" class="s10" d="m604.6 446.4l-9.8-5.7c-0.7-0.4-0.7-1.2 0.3-1.7l3.1-1.9c1-0.5 2.3-0.5 3.1-0.1l9.8 5.6c0.7 0.5 0.6 1.3-0.3 1.8l-3.2 1.8c-0.9 0.6-2.2 0.6-3 0.2z"/>
				<path id="&lt;Path&gt;" class="s10" d="m687.9 494.5l-9.8-5.7c-0.7-0.4-0.6-1.2 0.3-1.7l3.2-1.9c0.9-0.5 2.2-0.5 3-0.1l9.8 5.6c0.8 0.5 0.7 1.3-0.3 1.8l-3.1 1.8c-0.9 0.6-2.3 0.6-3.1 0.2z"/>
				<path id="&lt;Path&gt;" class="s10" d="m702.8 503.1l-9.7-5.6c-0.8-0.5-0.7-1.3 0.2-1.8l3.2-1.9c0.9-0.5 2.3-0.5 3-0.1l9.8 5.7c0.8 0.4 0.7 1.2-0.2 1.7l-3.2 1.9c-0.9 0.5-2.3 0.5-3.1 0.1z"/>
				<path id="&lt;Path&gt;" class="s10" d="m717.7 511.7l-9.7-5.6c-0.8-0.5-0.7-1.3 0.2-1.8l3.2-1.8c0.9-0.6 2.3-0.6 3.1-0.2l9.7 5.7c0.8 0.4 0.7 1.2-0.2 1.7l-3.2 1.9c-0.9 0.5-2.3 0.6-3.1 0.1z"/>
				<path id="&lt;Path&gt;" class="s10" d="m732.7 520.3l-9.8-5.6c-0.8-0.5-0.7-1.3 0.2-1.8l3.2-1.8c0.9-0.5 2.3-0.6 3.1-0.1l9.7 5.6c0.8 0.4 0.7 1.2-0.2 1.7l-3.2 1.9c-0.9 0.5-2.2 0.6-3 0.1z"/>
				<path id="&lt;Path&gt;" class="s10" d="m584.9 452.8l-9.8-5.7c-0.8-0.4-0.7-1.2 0.2-1.7l9.7-5.6c0.9-0.5 2.3-0.6 3.1-0.1l9.7 5.6c0.8 0.5 0.7 1.2-0.2 1.8l-9.7 5.6c-0.9 0.5-2.2 0.5-3 0.1z"/>
				<path id="&lt;Path&gt;" class="s10" d="m599.9 461.5l-9.7-5.7c-0.8-0.4-0.7-1.2 0.2-1.7l9.7-5.6c0.9-0.5 2.2-0.6 3-0.1l9.8 5.6c0.7 0.5 0.7 1.2-0.3 1.8l-9.6 5.5c-0.9 0.6-2.3 0.6-3.1 0.2z"/>
				<path id="&lt;Path&gt;" class="s10" d="m615 470.2l-9.8-5.7c-0.7-0.4-0.6-1.2 0.3-1.7l9.6-5.6c0.9-0.5 2.3-0.6 3.1-0.1l9.7 5.6c0.8 0.5 0.7 1.2-0.2 1.8l-9.7 5.5c-0.9 0.6-2.2 0.6-3 0.2z"/>
				<path id="&lt;Path&gt;" class="s10" d="m630.1 478.9l-9.8-5.7c-0.8-0.4-0.7-1.2 0.2-1.7l9.7-5.6c0.9-0.5 2.3-0.6 3-0.1l9.8 5.6c0.8 0.4 0.7 1.2-0.2 1.8l-9.7 5.5c-0.9 0.6-2.3 0.6-3 0.2z"/>
				<path id="&lt;Path&gt;" class="s10" d="m645.1 487.6l-9.7-5.7c-0.8-0.4-0.7-1.2 0.2-1.7l9.6-5.6c0.9-0.5 2.3-0.6 3.1-0.1l9.7 5.6c0.8 0.4 0.7 1.2-0.2 1.8l-9.6 5.5c-0.9 0.6-2.3 0.6-3.1 0.2z"/>
				<path id="&lt;Path&gt;" class="s10" d="m660.2 496.3l-9.8-5.7c-0.8-0.4-0.7-1.2 0.2-1.7l9.7-5.6c0.9-0.5 2.3-0.6 3.1-0.1l9.7 5.6c0.8 0.4 0.7 1.2-0.2 1.7l-9.7 5.6c-0.9 0.5-2.2 0.6-3 0.2z"/>
				<path id="&lt;Path&gt;" class="s10" d="m675.2 504.9l-9.7-5.6c-0.8-0.4-0.7-1.2 0.2-1.7l9.7-5.6c0.9-0.5 2.2-0.6 3-0.2l9.8 5.7c0.8 0.4 0.7 1.2-0.3 1.7l-9.6 5.6c-0.9 0.5-2.3 0.6-3.1 0.1z"/>
				<path id="&lt;Path&gt;" class="s10" d="m690.3 513.6l-9.8-5.6c-0.7-0.4-0.6-1.2 0.3-1.8l9.6-5.5c0.9-0.6 2.3-0.6 3.1-0.2l9.7 5.7c0.8 0.4 0.7 1.2-0.2 1.7l-9.7 5.6c-0.9 0.5-2.2 0.6-3 0.1z"/>
				<path id="&lt;Path&gt;" class="s10" d="m705.4 522.3l-9.8-5.6c-0.8-0.4-0.7-1.2 0.2-1.8l9.7-5.5c0.9-0.6 2.3-0.6 3-0.2l9.8 5.7c0.8 0.4 0.7 1.2-0.2 1.7l-9.7 5.6c-0.9 0.5-2.3 0.6-3 0.1z"/>
				<path id="&lt;Path&gt;" class="s10" d="m498.8 453.9l-28.8-16.6c-0.7-0.5-0.6-1.3 0.3-1.8l9.6-5.6c0.9-0.5 2.3-0.6 3.1-0.1l28.7 16.6c0.8 0.4 0.7 1.2-0.2 1.7l-9.7 5.6c-0.9 0.5-2.3 0.6-3 0.2z"/>
				<path id="&lt;Path&gt;" class="s10" d="m683.8 560.7l-28.7-16.6c-0.8-0.5-0.7-1.3 0.2-1.8l9.6-5.6c1-0.5 2.3-0.5 3.1-0.1l28.7 16.6c0.8 0.5 0.7 1.2-0.2 1.8l-9.7 5.5c-0.9 0.6-2.2 0.6-3 0.2z"/>
				<path id="&lt;Path&gt;" class="s10" d="m623.6 545.1l-9.8-5.6c-0.8-0.5-0.7-1.3 0.2-1.8l11.5-6.6c0.9-0.6 2.3-0.6 3.1-0.2l9.7 5.7c0.8 0.4 0.7 1.2-0.2 1.7l-11.5 6.7c-0.9 0.5-2.3 0.6-3 0.1z"/>
				<path id="&lt;Path&gt;" class="s10" d="m514.2 482l-15.6-9c-0.8-0.5-0.7-1.3 0.2-1.8l11.5-6.7c0.9-0.5 2.3-0.5 3.1-0.1l15.6 9c0.8 0.5 0.7 1.3-0.2 1.8l-11.6 6.6c-0.9 0.6-2.2 0.6-3 0.2z"/>
				<path id="&lt;Path&gt;" class="s10" d="m609 536.7l-15.5-9c-0.8-0.4-0.7-1.2 0.2-1.7l11.5-6.7c0.9-0.5 2.3-0.6 3-0.1l15.6 9c0.8 0.4 0.7 1.2-0.2 1.8l-11.5 6.6c-0.9 0.5-2.3 0.6-3.1 0.1z"/>
				<path id="&lt;Path&gt;" class="s10" d="m535.9 494.5l-15.6-9c-0.8-0.4-0.7-1.2 0.2-1.8l11.6-6.6c0.9-0.5 2.2-0.6 3-0.1l15.6 9c0.8 0.4 0.7 1.2-0.2 1.7l-11.5 6.7c-0.9 0.5-2.3 0.6-3.1 0.1z"/>
				<path id="&lt;Path&gt;" class="s10" d="m535.2 477l67.8 39.2c0.9 0.5 0.9 1.3 0 1.7l-11.7 6.8c-0.9 0.5-2.2 0.5-3.1 0l-67.8-39.1z"/>
				<path id="&lt;Path&gt;" class="s10" d="m665.7 560.9l10.8 6.2c0.7 0.4 0.6 1.1-0.2 1.5l-4.7 2.7c-0.7 0.4-1.8 0.5-2.5 0.1l-10.8-6.3c-0.7-0.3-0.6-1 0.1-1.4l4.7-2.7c0.8-0.5 1.9-0.5 2.6-0.1z"/>
				<path id="&lt;Path&gt;" class="s10" d="m650.5 552.1l10.8 6.3c0.7 0.3 0.6 1-0.2 1.4l-4.7 2.7c-0.7 0.5-1.8 0.5-2.5 0.1l-10.8-6.2c-0.7-0.4-0.6-1 0.2-1.5l4.7-2.7c0.7-0.4 1.8-0.5 2.5-0.1z"/>
				<path id="&lt;Path&gt;" class="s10" d="m635.4 543.4l10.9 6.3c0.6 0.4 0.5 1-0.2 1.4l-4.7 2.7c-0.8 0.5-1.9 0.5-2.5 0.1l-10.9-6.2c-0.6-0.4-0.5-1 0.2-1.5l4.7-2.7c0.7-0.4 1.9-0.5 2.5-0.1z"/>
				<path id="&lt;Path&gt;" class="s10" d="m658.8 547.3l10.8 6.3c0.7 0.3 0.6 1-0.1 1.4l-4.7 2.7c-0.8 0.5-1.9 0.5-2.5 0.1l-10.9-6.2c-0.7-0.4-0.6-1 0.2-1.5l4.7-2.7c0.7-0.4 1.8-0.5 2.5-0.1z"/>
			</g>
			<g id="&lt;Group&gt;" style="opacity: .4">
				<path id="&lt;Path&gt;" class="s10" d="m463.2 452.5l-9.8-5.6c-0.8-0.5-0.7-1.3 0.2-1.8l11.5-6.6c0.9-0.6 2.3-0.6 3.1-0.2l9.7 5.7c0.8 0.4 0.7 1.2-0.2 1.7l-11.5 6.7c-0.9 0.5-2.3 0.6-3 0.1z"/>
				<path id="&lt;Path&gt;" class="s10" d="m478.2 461.2l-9.7-5.6c-0.8-0.5-0.7-1.3 0.2-1.8l11.5-6.6c0.9-0.6 2.3-0.6 3.1-0.2l9.7 5.7c0.8 0.4 0.7 1.2-0.2 1.7l-11.5 6.7c-0.9 0.5-2.3 0.5-3.1 0.1z"/>
				<path id="&lt;Path&gt;" class="s10" d="m493.3 469.9l-9.8-5.6c-0.8-0.5-0.7-1.3 0.3-1.8l11.5-6.6c0.9-0.6 2.2-0.6 3-0.2l9.8 5.7c0.8 0.4 0.7 1.2-0.3 1.7l-11.5 6.7c-0.9 0.5-2.2 0.5-3 0.1z"/>
				<path id="&lt;Path&gt;" class="s10" d="m514.1 462.7l-9.7-5.6c-0.8-0.5-0.7-1.3 0.2-1.8l9.6-5.6c0.9-0.5 2.3-0.5 3.1-0.1l9.8 5.6c0.7 0.5 0.6 1.3-0.3 1.8l-9.6 5.6c-0.9 0.5-2.3 0.6-3.1 0.1z"/>
				<path id="&lt;Path&gt;" class="s10" d="m529.2 471.4l-9.8-5.6c-0.8-0.5-0.7-1.3 0.2-1.8l9.7-5.6c0.9-0.5 2.3-0.5 3.1-0.1l9.7 5.6c0.8 0.5 0.7 1.3-0.2 1.8l-9.7 5.6c-0.9 0.5-2.2 0.6-3 0.1z"/>
				<path id="&lt;Path&gt;" class="s10" d="m544.2 480.1l-9.7-5.6c-0.8-0.5-0.7-1.3 0.2-1.8l9.7-5.6c0.9-0.5 2.2-0.5 3-0.1l9.8 5.6c0.8 0.5 0.7 1.3-0.2 1.8l-9.7 5.6c-0.9 0.5-2.3 0.6-3.1 0.1z"/>
				<path id="&lt;Path&gt;" class="s10" d="m559.3 488.8l-9.8-5.6c-0.7-0.5-0.6-1.3 0.3-1.8l9.6-5.6c0.9-0.5 2.3-0.6 3.1-0.1l9.7 5.6c0.8 0.5 0.7 1.3-0.2 1.8l-9.7 5.6c-0.9 0.5-2.2 0.5-3 0.1z"/>
				<path id="&lt;Path&gt;" class="s10" d="m574.4 497.5l-9.8-5.6c-0.8-0.5-0.7-1.3 0.2-1.8l9.7-5.6c0.9-0.5 2.3-0.6 3-0.1l9.8 5.6c0.8 0.5 0.7 1.3-0.2 1.8l-9.7 5.6c-0.9 0.5-2.3 0.5-3 0.1z"/>
				<path id="&lt;Path&gt;" class="s10" d="m589.4 506.2l-9.7-5.6c-0.8-0.5-0.7-1.3 0.2-1.8l9.6-5.6c1-0.5 2.3-0.6 3.1-0.1l9.8 5.6c0.7 0.5 0.6 1.3-0.3 1.8l-9.6 5.6c-0.9 0.5-2.3 0.5-3.1 0.1z"/>
				<path id="&lt;Path&gt;" class="s10" d="m604.5 514.9l-9.8-5.6c-0.8-0.5-0.7-1.3 0.2-1.8l9.7-5.6c0.9-0.5 2.3-0.6 3.1-0.1l9.7 5.6c0.8 0.5 0.7 1.3-0.2 1.8l-9.7 5.6c-0.9 0.5-2.2 0.5-3 0.1z"/>
				<path id="&lt;Path&gt;" class="s10" d="m619.5 523.6l-9.7-5.7c-0.8-0.4-0.7-1.2 0.2-1.7l9.7-5.6c0.9-0.5 2.2-0.6 3-0.1l9.8 5.6c0.8 0.5 0.7 1.3-0.2 1.8l-9.7 5.6c-0.9 0.5-2.3 0.5-3.1 0.1z"/>
				<path id="&lt;Path&gt;" class="s10" d="m634.6 532.3l-9.8-5.7c-0.7-0.4-0.6-1.2 0.3-1.7l9.6-5.6c0.9-0.5 2.3-0.6 3.1-0.1l9.7 5.6c0.8 0.5 0.7 1.2-0.2 1.8l-9.6 5.5c-1 0.6-2.3 0.6-3.1 0.2z"/>
				<path id="&lt;Path&gt;" class="s10" d="m649.7 541l-9.8-5.7c-0.8-0.4-0.7-1.2 0.2-1.7l9.7-5.6c0.9-0.5 2.3-0.6 3-0.1l9.8 5.6c0.8 0.5 0.7 1.2-0.2 1.8l-9.7 5.5c-0.9 0.6-2.3 0.6-3 0.2z"/>
				<path id="&lt;Path&gt;" class="s10" d="m536.3 458.6l-9.7-5.6c-0.8-0.5-0.7-1.3 0.2-1.8l9.6-5.6c0.9-0.5 2.3-0.6 3.1-0.1l9.7 5.6c0.8 0.5 0.7 1.3-0.2 1.8l-9.6 5.6c-0.9 0.5-2.3 0.5-3.1 0.1z"/>
				<path id="&lt;Path&gt;" class="s10" d="m521 449.8l-9.7-5.7c-0.8-0.4-0.7-1.2 0.2-1.7l9.6-5.6c1-0.5 2.3-0.6 3.1-0.1l9.8 5.6c0.7 0.5 0.6 1.2-0.3 1.8l-9.6 5.5c-0.9 0.6-2.3 0.6-3.1 0.2z"/>
				<path id="&lt;Path&gt;" class="s10" d="m505.7 440.9l-21-12.1c-0.8-0.4-0.7-1.2 0.2-1.8l9.7-5.5c0.9-0.6 2.3-0.6 3-0.2l21 12.2c0.8 0.4 0.7 1.2-0.2 1.7l-9.6 5.6c-0.9 0.5-2.3 0.6-3.1 0.1z"/>
				<path id="&lt;Path&gt;" class="s10" d="m516.4 430.2l-17-9.9c-0.8-0.4-0.7-1.2 0.2-1.7l9.6-5.6c1-0.5 2.3-0.6 3.1-0.1l17 9.8c0.8 0.5 0.7 1.3-0.2 1.8l-9.6 5.6c-0.9 0.5-2.3 0.5-3.1 0.1z"/>
				<path id="&lt;Path&gt;" class="s10" d="m551.4 467.3l-9.8-5.6c-0.8-0.5-0.7-1.3 0.2-1.8l9.7-5.6c0.9-0.5 2.3-0.6 3-0.1l9.8 5.6c0.8 0.5 0.7 1.3-0.2 1.8l-9.7 5.6c-0.9 0.5-2.3 0.5-3 0.1z"/>
				<path id="&lt;Path&gt;" class="s10" d="m566.4 476l-9.7-5.6c-0.8-0.5-0.7-1.3 0.2-1.8l9.7-5.6c0.9-0.5 2.2-0.6 3-0.1l9.8 5.6c0.7 0.5 0.6 1.3-0.3 1.8l-9.6 5.6c-0.9 0.5-2.3 0.5-3.1 0.1z"/>
				<path id="&lt;Path&gt;" class="s10" d="m581.5 484.7l-9.8-5.6c-0.7-0.5-0.7-1.3 0.3-1.8l9.6-5.6c0.9-0.5 2.3-0.6 3.1-0.1l9.7 5.6c0.8 0.5 0.7 1.3-0.2 1.8l-9.7 5.6c-0.9 0.5-2.2 0.5-3 0.1z"/>
				<path id="&lt;Path&gt;" class="s10" d="m596.5 493.4l-9.7-5.7c-0.8-0.4-0.7-1.2 0.2-1.7l9.7-5.6c0.9-0.5 2.2-0.6 3-0.1l9.8 5.6c0.8 0.5 0.7 1.2-0.2 1.8l-9.7 5.5c-0.9 0.6-2.3 0.6-3.1 0.2z"/>
				<path id="&lt;Path&gt;" class="s10" d="m611.6 502.1l-9.7-5.7c-0.8-0.4-0.7-1.2 0.2-1.7l9.6-5.6c0.9-0.5 2.3-0.6 3.1-0.1l9.7 5.6c0.8 0.5 0.7 1.2-0.2 1.8l-9.6 5.5c-0.9 0.6-2.3 0.6-3.1 0.2z"/>
				<path id="&lt;Path&gt;" class="s10" d="m626.7 510.8l-9.8-5.7c-0.8-0.4-0.7-1.2 0.2-1.7l9.7-5.6c0.9-0.5 2.3-0.6 3.1-0.1l9.7 5.6c0.8 0.4 0.7 1.2-0.2 1.8l-9.7 5.5c-0.9 0.6-2.2 0.6-3 0.2z"/>
				<path id="&lt;Path&gt;" class="s10" d="m641.7 519.5l-9.7-5.7c-0.8-0.4-0.7-1.2 0.2-1.7l9.7-5.6c0.9-0.5 2.2-0.6 3-0.1l9.8 5.6c0.7 0.4 0.6 1.2-0.3 1.8l-9.6 5.5c-0.9 0.6-2.3 0.6-3.1 0.2z"/>
				<path id="&lt;Path&gt;" class="s10" d="m656.8 528.2l-9.8-5.7c-0.7-0.4-0.6-1.2 0.3-1.7l9.6-5.6c0.9-0.5 2.3-0.6 3.1-0.1l9.7 5.6c0.8 0.4 0.7 1.2-0.2 1.8l-9.7 5.5c-0.9 0.6-2.2 0.6-3 0.2z"/>
				<path id="&lt;Path&gt;" class="s10" d="m671.8 536.9l-9.7-5.7c-0.8-0.4-0.7-1.2 0.2-1.7l9.7-5.6c0.9-0.5 2.3-0.6 3-0.1l9.8 5.6c0.8 0.4 0.7 1.2-0.2 1.7l-9.7 5.6c-0.9 0.5-2.3 0.6-3.1 0.2z"/>
				<path id="&lt;Path&gt;" class="s10" d="m698.6 552.3l-21.3-12.3c-0.7-0.4-0.6-1.2 0.3-1.7l9.6-5.6c0.9-0.5 2.3-0.6 3.1-0.1l21.3 12.2c0.7 0.5 0.6 1.3-0.3 1.8l-9.6 5.6c-0.9 0.5-2.3 0.6-3.1 0.1z"/>
				<path id="&lt;Path&gt;" class="s10" d="m727.9 535.4l-17.9-10.4c-0.8-0.4-0.7-1.2 0.2-1.8l9.7-5.5c0.9-0.6 2.2-0.6 3-0.2l18 10.4c0.8 0.5 0.7 1.3-0.2 1.8l-9.7 5.6c-0.9 0.5-2.3 0.5-3.1 0.1z"/>
				<path id="&lt;Path&gt;" class="s10" d="m577.7 465.6l-9.7-5.6c-0.8-0.5-0.7-1.3 0.2-1.8l9.7-5.6c0.9-0.5 2.2-0.6 3-0.1l9.8 5.6c0.8 0.5 0.7 1.3-0.2 1.8l-9.7 5.6c-0.9 0.5-2.3 0.5-3.1 0.1z"/>
				<path id="&lt;Path&gt;" class="s10" d="m562.3 456.7l-9.7-5.7c-0.8-0.4-0.7-1.2 0.2-1.7l9.6-5.6c0.9-0.5 2.3-0.6 3.1-0.1l9.7 5.6c0.8 0.5 0.7 1.3-0.2 1.8l-9.6 5.6c-0.9 0.5-2.3 0.5-3.1 0.1z"/>
				<path id="&lt;Path&gt;" class="s10" d="m546.9 447.8l-9.8-5.7c-0.8-0.4-0.7-1.2 0.2-1.7l9.7-5.6c0.9-0.5 2.3-0.6 3.1-0.1l9.7 5.6c0.8 0.4 0.7 1.2-0.2 1.8l-9.7 5.5c-0.9 0.6-2.2 0.6-3 0.2z"/>
				<path id="&lt;Path&gt;" class="s10" d="m531.4 438.9l-9.7-5.7c-0.8-0.4-0.7-1.2 0.2-1.7l9.7-5.6c0.9-0.5 2.2-0.6 3-0.1l9.8 5.6c0.8 0.4 0.7 1.2-0.2 1.7l-9.7 5.6c-0.9 0.6-2.3 0.6-3.1 0.2z"/>
				<path id="&lt;Path&gt;" class="s10" d="m592.8 474.3l-9.8-5.6c-0.7-0.5-0.6-1.3 0.3-1.8l9.6-5.6c0.9-0.5 2.3-0.6 3.1-0.1l9.7 5.6c0.8 0.5 0.7 1.3-0.2 1.8l-9.6 5.6c-0.9 0.5-2.3 0.5-3.1 0.1z"/>
				<path id="&lt;Path&gt;" class="s10" d="m607.9 483l-9.8-5.7c-0.8-0.4-0.7-1.2 0.2-1.7l9.7-5.6c0.9-0.5 2.3-0.6 3-0.1l9.8 5.6c0.8 0.5 0.7 1.3-0.2 1.8l-9.7 5.6c-0.9 0.5-2.3 0.5-3 0.1z"/>
				<path id="&lt;Path&gt;" class="s10" d="m622.9 491.7l-9.7-5.7c-0.8-0.4-0.7-1.2 0.2-1.7l9.7-5.6c0.9-0.5 2.2-0.6 3-0.1l9.8 5.6c0.7 0.5 0.6 1.2-0.3 1.8l-9.6 5.5c-0.9 0.6-2.3 0.6-3.1 0.2z"/>
				<path id="&lt;Path&gt;" class="s10" d="m638 500.4l-9.8-5.7c-0.8-0.4-0.7-1.2 0.2-1.7l9.7-5.6c0.9-0.5 2.3-0.6 3.1-0.1l9.7 5.6c0.8 0.5 0.7 1.2-0.2 1.8l-9.7 5.5c-0.9 0.6-2.2 0.6-3 0.2z"/>
				<path id="&lt;Path&gt;" class="s10" d="m653 509.1l-9.7-5.7c-0.8-0.4-0.7-1.2 0.2-1.7l9.7-5.6c0.9-0.5 2.2-0.6 3-0.1l9.8 5.6c0.8 0.4 0.7 1.2-0.2 1.8l-9.7 5.5c-0.9 0.6-2.3 0.6-3.1 0.2z"/>
				<path id="&lt;Path&gt;" class="s10" d="m668.1 517.8l-9.8-5.7c-0.7-0.4-0.6-1.2 0.3-1.7l9.6-5.6c0.9-0.5 2.3-0.6 3.1-0.1l9.7 5.6c0.8 0.4 0.7 1.2-0.2 1.8l-9.6 5.5c-0.9 0.6-2.3 0.6-3.1 0.2z"/>
				<path id="&lt;Path&gt;" class="s10" d="m683.2 526.5l-9.8-5.7c-0.8-0.4-0.7-1.2 0.2-1.7l9.7-5.6c0.9-0.5 2.3-0.6 3-0.1l9.8 5.6c0.8 0.4 0.7 1.2-0.2 1.8l-9.7 5.5c-0.9 0.6-2.3 0.6-3 0.2z"/>
				<path id="&lt;Path&gt;" class="s10" d="m698.2 535.2l-9.7-5.7c-0.8-0.4-0.7-1.2 0.2-1.7l9.7-5.6c0.9-0.5 2.2-0.6 3-0.1l9.8 5.6c0.7 0.4 0.6 1.2-0.3 1.7l-9.6 5.6c-0.9 0.5-2.3 0.6-3.1 0.2z"/>
				<path id="&lt;Path&gt;" class="s10" d="m713.3 543.8l-9.8-5.6c-0.8-0.4-0.7-1.2 0.3-1.7l9.6-5.6c0.9-0.5 2.3-0.6 3.1-0.2l9.7 5.7c0.8 0.4 0.7 1.2-0.2 1.7l-9.7 5.6c-0.9 0.5-2.2 0.6-3 0.1z"/>
				<path id="&lt;Path&gt;" class="s10" d="m569.8 444.1l-9.7-5.6c-0.8-0.5-0.7-1.3 0.2-1.8l9.6-5.6c0.9-0.5 2.3-0.6 3.1-0.1l9.7 5.6c0.8 0.5 0.7 1.3-0.2 1.8l-9.6 5.6c-0.9 0.5-2.3 0.5-3.1 0.1z"/>
				<path id="&lt;Path&gt;" class="s10" d="m554.8 435.4l-9.7-5.6c-0.8-0.5-0.7-1.2 0.2-1.8l9.7-5.5c0.9-0.6 2.2-0.6 3-0.2l9.8 5.7c0.7 0.4 0.6 1.2-0.3 1.7l-9.6 5.6c-0.9 0.5-2.3 0.6-3.1 0.1z"/>
				<path id="&lt;Path&gt;" class="s10" d="m539.8 426.8l-9.7-5.7c-0.8-0.4-0.7-1.2 0.2-1.7l9.7-5.6c0.9-0.5 2.2-0.6 3-0.1l9.8 5.6c0.8 0.5 0.7 1.3-0.2 1.8l-9.7 5.6c-0.9 0.5-2.3 0.5-3.1 0.1z"/>
				<path id="&lt;Path&gt;" class="s10" d="m524.9 418.1l-9.8-5.6c-0.8-0.5-0.7-1.2 0.2-1.8l9.7-5.5c0.9-0.6 2.3-0.6 3-0.2l9.8 5.7c0.8 0.4 0.7 1.2-0.2 1.7l-9.7 5.6c-0.9 0.5-2.3 0.6-3 0.1z"/>
				<path id="&lt;Path&gt;" class="s10" d="m540.3 409.2l-9.8-5.6c-0.8-0.5-0.7-1.2 0.2-1.8l3.2-1.8c0.9-0.5 2.3-0.6 3.1-0.1l9.7 5.6c0.8 0.4 0.7 1.2-0.2 1.8l-3.2 1.8c-0.9 0.5-2.3 0.6-3 0.1z"/>
				<path id="&lt;Path&gt;" class="s10" d="m559.8 420.5l-9.7-5.6c-0.8-0.5-0.7-1.3 0.2-1.8l3.2-1.8c0.9-0.5 2.3-0.6 3-0.1l9.8 5.6c0.8 0.4 0.7 1.2-0.2 1.7l-3.2 1.9c-0.9 0.5-2.3 0.6-3.1 0.1z"/>
				<path id="&lt;Path&gt;" class="s10" d="m574.7 429.1l-9.7-5.6c-0.8-0.4-0.7-1.2 0.2-1.8l3.2-1.8c0.9-0.5 2.3-0.6 3.1-0.1l9.7 5.6c0.8 0.5 0.7 1.2-0.2 1.8l-3.2 1.8c-0.9 0.5-2.3 0.6-3.1 0.1z"/>
				<path id="&lt;Path&gt;" class="s10" d="m589.7 437.8l-9.8-5.7c-0.8-0.4-0.7-1.2 0.2-1.7l3.2-1.9c0.9-0.5 2.3-0.6 3.1-0.1l9.7 5.6c0.8 0.5 0.7 1.3-0.2 1.8l-3.2 1.8c-0.9 0.5-2.3 0.6-3 0.2z"/>
				<path id="&lt;Path&gt;" class="s10" d="m604.6 446.4l-9.8-5.7c-0.7-0.4-0.7-1.2 0.3-1.7l3.1-1.9c1-0.5 2.3-0.5 3.1-0.1l9.8 5.6c0.7 0.5 0.6 1.3-0.3 1.8l-3.2 1.8c-0.9 0.6-2.2 0.6-3 0.2z"/>
				<path id="&lt;Path&gt;" class="s10" d="m687.9 494.5l-9.8-5.7c-0.7-0.4-0.6-1.2 0.3-1.7l3.2-1.9c0.9-0.5 2.2-0.5 3-0.1l9.8 5.6c0.8 0.5 0.7 1.3-0.3 1.8l-3.1 1.8c-0.9 0.6-2.3 0.6-3.1 0.2z"/>
				<path id="&lt;Path&gt;" class="s10" d="m702.8 503.1l-9.7-5.6c-0.8-0.5-0.7-1.3 0.2-1.8l3.2-1.9c0.9-0.5 2.3-0.5 3-0.1l9.8 5.7c0.8 0.4 0.7 1.2-0.2 1.7l-3.2 1.9c-0.9 0.5-2.3 0.5-3.1 0.1z"/>
				<path id="&lt;Path&gt;" class="s10" d="m717.7 511.7l-9.7-5.6c-0.8-0.5-0.7-1.3 0.2-1.8l3.2-1.8c0.9-0.6 2.3-0.6 3.1-0.2l9.7 5.7c0.8 0.4 0.7 1.2-0.2 1.7l-3.2 1.9c-0.9 0.5-2.3 0.6-3.1 0.1z"/>
				<path id="&lt;Path&gt;" class="s10" d="m732.7 520.3l-9.8-5.6c-0.8-0.5-0.7-1.3 0.2-1.8l3.2-1.8c0.9-0.5 2.3-0.6 3.1-0.1l9.7 5.6c0.8 0.4 0.7 1.2-0.2 1.7l-3.2 1.9c-0.9 0.5-2.2 0.6-3 0.1z"/>
				<path id="&lt;Path&gt;" class="s10" d="m584.9 452.8l-9.8-5.7c-0.8-0.4-0.7-1.2 0.2-1.7l9.7-5.6c0.9-0.5 2.3-0.6 3.1-0.1l9.7 5.6c0.8 0.5 0.7 1.2-0.2 1.8l-9.7 5.6c-0.9 0.5-2.2 0.5-3 0.1z"/>
				<path id="&lt;Path&gt;" class="s10" d="m599.9 461.5l-9.7-5.7c-0.8-0.4-0.7-1.2 0.2-1.7l9.7-5.6c0.9-0.5 2.2-0.6 3-0.1l9.8 5.6c0.7 0.5 0.7 1.2-0.3 1.8l-9.6 5.5c-0.9 0.6-2.3 0.6-3.1 0.2z"/>
				<path id="&lt;Path&gt;" class="s10" d="m615 470.2l-9.8-5.7c-0.7-0.4-0.6-1.2 0.3-1.7l9.6-5.6c0.9-0.5 2.3-0.6 3.1-0.1l9.7 5.6c0.8 0.5 0.7 1.2-0.2 1.8l-9.7 5.5c-0.9 0.6-2.2 0.6-3 0.2z"/>
				<path id="&lt;Path&gt;" class="s10" d="m630.1 478.9l-9.8-5.7c-0.8-0.4-0.7-1.2 0.2-1.7l9.7-5.6c0.9-0.5 2.3-0.6 3-0.1l9.8 5.6c0.8 0.4 0.7 1.2-0.2 1.8l-9.7 5.5c-0.9 0.6-2.3 0.6-3 0.2z"/>
				<path id="&lt;Path&gt;" class="s10" d="m645.1 487.6l-9.7-5.7c-0.8-0.4-0.7-1.2 0.2-1.7l9.6-5.6c0.9-0.5 2.3-0.6 3.1-0.1l9.7 5.6c0.8 0.4 0.7 1.2-0.2 1.8l-9.6 5.5c-0.9 0.6-2.3 0.6-3.1 0.2z"/>
				<path id="&lt;Path&gt;" class="s10" d="m660.2 496.3l-9.8-5.7c-0.8-0.4-0.7-1.2 0.2-1.7l9.7-5.6c0.9-0.5 2.3-0.6 3.1-0.1l9.7 5.6c0.8 0.4 0.7 1.2-0.2 1.7l-9.7 5.6c-0.9 0.5-2.2 0.6-3 0.2z"/>
				<path id="&lt;Path&gt;" class="s10" d="m675.2 504.9l-9.7-5.6c-0.8-0.4-0.7-1.2 0.2-1.7l9.7-5.6c0.9-0.5 2.2-0.6 3-0.2l9.8 5.7c0.8 0.4 0.7 1.2-0.3 1.7l-9.6 5.6c-0.9 0.5-2.3 0.6-3.1 0.1z"/>
				<path id="&lt;Path&gt;" class="s10" d="m690.3 513.6l-9.8-5.6c-0.7-0.4-0.6-1.2 0.3-1.8l9.6-5.5c0.9-0.6 2.3-0.6 3.1-0.2l9.7 5.7c0.8 0.4 0.7 1.2-0.2 1.7l-9.7 5.6c-0.9 0.5-2.2 0.6-3 0.1z"/>
				<path id="&lt;Path&gt;" class="s10" d="m705.4 522.3l-9.8-5.6c-0.8-0.4-0.7-1.2 0.2-1.8l9.7-5.5c0.9-0.6 2.3-0.6 3-0.2l9.8 5.7c0.8 0.4 0.7 1.2-0.2 1.7l-9.7 5.6c-0.9 0.5-2.3 0.6-3 0.1z"/>
				<path id="&lt;Path&gt;" class="s10" d="m498.8 453.9l-28.8-16.6c-0.7-0.5-0.6-1.3 0.3-1.8l9.6-5.6c0.9-0.5 2.3-0.6 3.1-0.1l28.7 16.6c0.8 0.4 0.7 1.2-0.2 1.7l-9.7 5.6c-0.9 0.5-2.3 0.6-3 0.2z"/>
				<path id="&lt;Path&gt;" class="s10" d="m683.8 560.7l-28.7-16.6c-0.8-0.5-0.7-1.3 0.2-1.8l9.6-5.6c1-0.5 2.3-0.5 3.1-0.1l28.7 16.6c0.8 0.5 0.7 1.2-0.2 1.8l-9.7 5.5c-0.9 0.6-2.2 0.6-3 0.2z"/>
				<path id="&lt;Path&gt;" class="s10" d="m623.6 545.1l-9.8-5.6c-0.8-0.5-0.7-1.3 0.2-1.8l11.5-6.6c0.9-0.6 2.3-0.6 3.1-0.2l9.7 5.7c0.8 0.4 0.7 1.2-0.2 1.7l-11.5 6.7c-0.9 0.5-2.3 0.6-3 0.1z"/>
				<path id="&lt;Path&gt;" class="s10" d="m514.2 482l-15.6-9c-0.8-0.5-0.7-1.3 0.2-1.8l11.5-6.7c0.9-0.5 2.3-0.5 3.1-0.1l15.6 9c0.8 0.5 0.7 1.3-0.2 1.8l-11.6 6.6c-0.9 0.6-2.2 0.6-3 0.2z"/>
				<path id="&lt;Path&gt;" class="s10" d="m609 536.7l-15.5-9c-0.8-0.4-0.7-1.2 0.2-1.7l11.5-6.7c0.9-0.5 2.3-0.6 3-0.1l15.6 9c0.8 0.4 0.7 1.2-0.2 1.8l-11.5 6.6c-0.9 0.5-2.3 0.6-3.1 0.1z"/>
				<path id="&lt;Path&gt;" class="s10" d="m535.9 494.5l-15.6-9c-0.8-0.4-0.7-1.2 0.2-1.8l11.6-6.6c0.9-0.5 2.2-0.6 3-0.1l15.6 9c0.8 0.4 0.7 1.2-0.2 1.7l-11.5 6.7c-0.9 0.5-2.3 0.6-3.1 0.1z"/>
				<path id="&lt;Path&gt;" class="s10" d="m535.2 477l67.8 39.2c0.9 0.5 0.9 1.3 0 1.7l-11.7 6.8c-0.9 0.5-2.2 0.5-3.1 0l-67.8-39.1z"/>
				<path id="&lt;Path&gt;" class="s10" d="m665.7 560.9l10.8 6.2c0.7 0.4 0.6 1.1-0.2 1.5l-4.7 2.7c-0.7 0.4-1.8 0.5-2.5 0.1l-10.8-6.3c-0.7-0.3-0.6-1 0.1-1.4l4.7-2.7c0.8-0.5 1.9-0.5 2.6-0.1z"/>
				<path id="&lt;Path&gt;" class="s10" d="m650.5 552.1l10.8 6.3c0.7 0.3 0.6 1-0.2 1.4l-4.7 2.7c-0.7 0.5-1.8 0.5-2.5 0.1l-10.8-6.2c-0.7-0.4-0.6-1 0.2-1.5l4.7-2.7c0.7-0.4 1.8-0.5 2.5-0.1z"/>
				<path id="&lt;Path&gt;" class="s10" d="m635.4 543.4l10.9 6.3c0.6 0.4 0.5 1-0.2 1.4l-4.7 2.7c-0.8 0.5-1.9 0.5-2.5 0.1l-10.9-6.2c-0.6-0.4-0.5-1 0.2-1.5l4.7-2.7c0.7-0.4 1.9-0.5 2.5-0.1z"/>
				<path id="&lt;Path&gt;" class="s10" d="m658.8 547.3l10.8 6.3c0.7 0.3 0.6 1-0.1 1.4l-4.7 2.7c-0.8 0.5-1.9 0.5-2.5 0.1l-10.9-6.2c-0.7-0.4-0.6-1 0.2-1.5l4.7-2.7c0.7-0.4 1.8-0.5 2.5-0.1z"/>
			</g>
			<path id="&lt;Path&gt;" class="s11" d="m818.2 529.7l-287.8-166.1c-4.5-2.6-6.8-9-5.2-14.2l65-211.3c1.7-5.2 6.6-7.4 11.2-4.7l287.7 166.1c4.5 2.6 6.9 9 5.3 14.2l-65.1 211.3c-1.6 5.2-6.6 7.3-11.1 4.7z"/>
			<path id="&lt;Path&gt;" class="s12" d="m815.5 522.3l-279.1-161.2c-4.3-2.5-6.6-8.6-5.1-13.6l62.2-202c1.6-5 6.3-7.1 10.7-4.6l279.1 161.3c4.3 2.5 6.5 8.6 5 13.6l-62.2 202c-1.6 5-6.3 7-10.6 4.5z"/>
			<path id="&lt;Path&gt;" class="s13" d="m815.5 522.3l-279.1-161.2c-4.3-2.5-6.6-8.6-5.1-13.6l62.2-202c1.6-5 6.3-7.1 10.7-4.6l279.1 161.3c4.3 2.5 6.5 8.6 5 13.6l-62.2 202c-1.6 5-6.3 7-10.6 4.5z"/>
			<path id="&lt;Path&gt;" class="s13" d="m815.5 522.3l-279.1-161.2c-4.3-2.5-6.6-8.6-5.1-13.6l62.2-202c1.6-5 6.3-7.1 10.7-4.6l279.1 161.3c4.3 2.5 6.5 8.6 5 13.6l-62.2 202c-1.6 5-6.3 7-10.6 4.5z"/>
			<path id="&lt;Path&gt;" class="s14" d="m800.5 460.6l-189-109.1c-2.9-1.7-4.5-5.9-3.4-9.3l42.7-138.7c1.1-3.5 4.3-4.9 7.3-3.2l188.9 109.1c3 1.7 4.5 5.9 3.5 9.4l-42.7 138.7c-1.1 3.4-4.4 4.8-7.3 3.1z"/>
			<g id="&lt;Group&gt;">
				<path id="&lt;Path&gt;" class="s15" d="m774.9 463.9l-188.9-109c-2.9-1.7-4.5-5.9-3.4-9.4l42.7-138.7c1-3.4 4.3-4.8 7.3-3.1l188.9 109.1c3 1.7 4.5 5.9 3.5 9.3l-42.8 138.7c-1 3.5-4.3 4.9-7.3 3.1z"/>
			</g>
			<g id="&lt;Group&gt;" style="opacity: .5">
				<path id="&lt;Path&gt;" class="s10" d="m774.9 463.9l-188.9-109c-2.9-1.7-4.5-5.9-3.4-9.4l42.7-138.7c1-3.4 4.3-4.8 7.3-3.1l188.9 109.1c3 1.7 4.5 5.9 3.5 9.3l-42.8 138.7c-1 3.5-4.3 4.9-7.3 3.1z"/>
			</g>
			<path id="&lt;Path&gt;" class="s1" d="m821.5 312.8l-188.9-109.1c-1.9-1.1-3.9-0.9-5.3 0.2 0.9 0 1.8 0.2 2.7 0.7l188.9 109c3 1.8 4.5 5.9 3.5 9.4l-42.8 138.7c-0.3 1.3-1.1 2.3-1.9 2.9 2 0 3.8-1.4 4.5-3.8l42.8-138.7c1-3.4-0.5-7.6-3.5-9.3z"/>
			<path id="&lt;Compound Path&gt;" fill-rule="evenodd" class="s13" d="m536.7 577.2c-2.6 0-5.1-0.5-7-1.6l-75.7-43.7c-2-1.2-3.1-2.8-3.1-4.7 0-2.1 1.5-4.2 4.1-5.8l39-22.5c4.8-2.7 11.8-3 15.9-0.6l75.7 43.7c2 1.2 3.1 2.8 3.1 4.7 0 2.1-1.5 4.2-4.2 5.8l-38.9 22.5c-2.6 1.5-5.8 2.2-8.9 2.2zm-33.7-78.3c-2.8 0-5.7 0.7-7.9 1.9l-39 22.5c-1.9 1.2-3 2.6-3 3.9 0 1.3 1 2.3 2 2.8l75.7 43.7c3.4 2 9.7 1.7 13.7-0.6l39-22.5c1.9-1.2 3-2.6 3-3.9 0-1.3-1.1-2.3-2-2.8l-75.7-43.7c-1.5-0.9-3.6-1.3-5.8-1.3z"/>
		</g>
		<g id="&lt;Group&gt;">
			<g id="&lt;Group&gt;">
				<path id="&lt;Path&gt;" class="s1" d="m678.6 276.5l-11.7-6.8c-1.1-0.6-1.7-2.1-1.3-3.3 0.4-1.3 1.6-1.7 2.6-1.1l11.7 6.7c1.1 0.6 1.7 2.1 1.3 3.4-0.3 1.2-1.5 1.7-2.6 1.1z"/>
				<path id="&lt;Path&gt;" class="s1" d="m706.4 292.5l-17.2-9.9c-1.1-0.6-1.7-2.1-1.3-3.4 0.4-1.2 1.5-1.7 2.6-1.1l17.2 10c1.1 0.6 1.7 2.1 1.3 3.3-0.3 1.3-1.5 1.8-2.6 1.1z"/>
				<path id="&lt;Path&gt;" class="s1" d="m655 328.5l-11.6-6.8c-1.1-0.6-1.7-2.1-1.3-3.3 0.3-1.3 1.5-1.7 2.6-1.1l11.7 6.7c1 0.6 1.6 2.1 1.3 3.4-0.4 1.2-1.6 1.7-2.7 1.1z"/>
				<path id="&lt;Path&gt;" class="s1" d="m679.8 342.8l-17.2-10c-1.1-0.6-1.6-2.1-1.3-3.3 0.4-1.2 1.6-1.7 2.6-1.1l17.3 9.9c1 0.7 1.6 2.2 1.3 3.4-0.4 1.2-1.6 1.7-2.7 1.1z"/>
				<path id="&lt;Path&gt;" class="s1" d="m643.6 267.2l-7.3-4.2c-1.1-0.6-1.7-2.1-1.3-3.4 0.4-1.2 1.6-1.7 2.6-1.1l7.3 4.3c1.1 0.6 1.7 2.1 1.3 3.3-0.3 1.2-1.5 1.7-2.6 1.1z"/>
				<path id="&lt;Path&gt;" class="s1" d="m665.6 290.8l-22.3-12.9c-1.1-0.6-1.7-2.1-1.3-3.3 0.3-1.2 1.5-1.7 2.6-1.1l22.3 12.9c1.1 0.6 1.7 2.1 1.3 3.3-0.4 1.2-1.6 1.7-2.6 1.1z"/>
				<path id="&lt;Path&gt;" class="s1" d="m645 300.8l-7.3-4.2c-1.1-0.6-1.7-2.1-1.3-3.4 0.4-1.2 1.5-1.7 2.6-1.1l7.3 4.3c1.1 0.6 1.7 2.1 1.3 3.3-0.3 1.2-1.5 1.7-2.6 1.1z"/>
				<path id="&lt;Path&gt;" class="s1" d="m682.5 366.2l-19.5-11.2c-1-0.7-1.6-2.2-1.3-3.4 0.4-1.2 1.6-1.7 2.7-1.1l19.5 11.3c1 0.6 1.6 2.1 1.3 3.3-0.4 1.2-1.6 1.7-2.7 1.1z"/>
				<path id="&lt;Path&gt;" class="s1" d="m636.8 318l-4.7-2.8c-1-0.6-1.6-2.1-1.3-3.3 0.4-1.2 1.6-1.7 2.7-1.1l4.6 2.7c1.1 0.6 1.7 2.1 1.3 3.4-0.3 1.2-1.5 1.7-2.6 1.1z"/>
				<path id="&lt;Path&gt;" class="s1" d="m632.4 337.3l-5.8-3.4c-1.1-0.6-1.7-2.1-1.3-3.4 0.3-1.2 1.5-1.7 2.6-1l5.8 3.3c1.1 0.6 1.7 2.1 1.3 3.4-0.4 1.2-1.5 1.7-2.6 1.1z"/>
				<path id="&lt;Path&gt;" class="s1" d="m655 350.3l-15.3-8.8c-1.1-0.7-1.7-2.2-1.3-3.4 0.3-1.2 1.5-1.7 2.6-1.1l15.3 8.9c1.1 0.6 1.7 2.1 1.3 3.3-0.3 1.3-1.5 1.7-2.6 1.1z"/>
				<path id="&lt;Path&gt;" class="s1" d="m634.8 349.6l-11-6.4c-1.1-0.6-1.7-2.1-1.3-3.3 0.4-1.3 1.5-1.7 2.6-1.1l11 6.3c1.1 0.7 1.7 2.2 1.3 3.4-0.3 1.2-1.5 1.7-2.6 1.1z"/>
				<path id="&lt;Path&gt;" class="s1" d="m699.2 375.9l-7-4.1c-1.1-0.6-1.7-2.1-1.3-3.3 0.3-1.3 1.5-1.8 2.6-1.1l7.1 4.1c1.1 0.6 1.6 2.1 1.3 3.3-0.4 1.2-1.6 1.7-2.7 1.1z"/>
				<path id="&lt;Path&gt;" class="s1" d="m672.1 316.5l-19.4-11.3c-1.1-0.6-1.7-2.1-1.3-3.3 0.3-1.3 1.5-1.8 2.6-1.1l19.5 11.2c1 0.7 1.6 2.2 1.3 3.4-0.4 1.2-1.6 1.7-2.7 1.1z"/>
			</g>
			<path id="&lt;Path&gt;" class="s16" d="m674.4 306.9l-33.9-19.6c-1.1-0.7-1.7-2.2-1.3-3.4 0.4-1.2 1.5-1.7 2.6-1.1l34 19.6c1.1 0.7 1.6 2.2 1.3 3.4-0.4 1.2-1.6 1.7-2.7 1.1z"/>
			<path id="&lt;Path&gt;" class="s16" d="m654.4 317.2l-19.5-11.3c-1.1-0.6-1.6-2.1-1.3-3.3 0.4-1.3 1.6-1.8 2.6-1.1l19.5 11.2c1.1 0.6 1.7 2.2 1.3 3.4-0.3 1.2-1.5 1.7-2.6 1.1z"/>
			<path id="&lt;Path&gt;" class="s16" d="m686.9 325l-7.1-4.1c-1-0.6-1.6-2.1-1.3-3.3 0.4-1.3 1.6-1.8 2.7-1.1l7 4.1c1.1 0.6 1.7 2.1 1.3 3.3-0.3 1.2-1.5 1.7-2.6 1.1z"/>
			<path id="&lt;Path&gt;" class="s16" d="m758.9 322.9l-41.9-24.2c-1.1-0.7-1.7-2.2-1.3-3.4 0.4-1.2 1.6-1.7 2.6-1.1l42 24.2c1.1 0.6 1.6 2.1 1.3 3.4-0.4 1.2-1.6 1.7-2.7 1.1z"/>
			<path id="&lt;Path&gt;" class="s17" d="m652.8 338.1l-23.4-13.5c-1.1-0.6-1.7-2.2-1.3-3.4 0.3-1.2 1.5-1.7 2.6-1.1l23.4 13.5c1.1 0.7 1.7 2.2 1.3 3.4-0.4 1.2-1.5 1.7-2.6 1.1z"/>
			<path id="&lt;Path&gt;" class="s17" d="m656.3 263.6l-17.2-9.9c-1.1-0.7-1.7-2.2-1.3-3.4 0.4-1.2 1.5-1.7 2.6-1.1l17.2 10c1.1 0.6 1.7 2.1 1.3 3.3-0.3 1.2-1.5 1.7-2.6 1.1z"/>
			<path id="&lt;Path&gt;" class="s16" d="m631.2 358.4l-19.9-11.5c-1.1-0.6-1.7-2.1-1.3-3.3 0.3-1.3 1.5-1.7 2.6-1.1l19.9 11.5c1.1 0.6 1.7 2.1 1.3 3.4-0.3 1.2-1.5 1.7-2.6 1z"/>
		</g>
		<g id="&lt;Group&gt;">
			<path id="&lt;Path&gt;" class="s1" d="m763.6 301.3l-8.5-4.9c-0.8-0.5-1.2-1.6-0.9-2.5 0.2-0.9 1.1-1.2 1.9-0.8l8.5 4.9c0.8 0.5 1.2 1.6 1 2.5-0.3 0.9-1.2 1.3-2 0.8z"/>
			<path id="&lt;Path&gt;" class="s1" d="m779.9 310.7l-8.5-4.9c-0.8-0.5-1.2-1.6-1-2.5 0.3-0.9 1.2-1.2 2-0.8l8.5 4.9c0.8 0.5 1.2 1.6 1 2.5-0.3 0.9-1.2 1.3-2 0.8z"/>
			<path id="&lt;Path&gt;" class="s1" d="m796.2 320.1l-8.5-4.9c-0.8-0.5-1.2-1.6-1-2.5 0.3-0.9 1.2-1.2 1.9-0.8l8.6 4.9c0.8 0.5 1.2 1.6 0.9 2.5-0.2 0.9-1.1 1.3-1.9 0.8z"/>
			<path id="&lt;Path&gt;" class="s17" d="m804.2 324.7l-0.2-0.1c-0.8-0.5-1.3-1.6-1-2.5 0.3-0.9 1.1-1.2 1.9-0.8l0.3 0.2c0.8 0.4 1.2 1.5 0.9 2.4-0.2 0.9-1.1 1.3-1.9 0.8z"/>
		</g>
		<path id="&lt;Compound Path&gt;" fill-rule="evenodd" class="s18" d="m363.6 424.6c-5.4 0-10.8-1.4-15.6-4.1l-57.2-33.1c-2.5-1.4-4-4-4-6.8 0-2.9 1.5-5.4 4-6.9l57.2-33c9.6-5.6 21.6-5.6 31.2 0l57.2 33c2.5 1.5 4 4 4 6.9 0 2.9-1.5 5.4-4 6.8l-57.2 33.1c-4.8 2.7-10.2 4.1-15.6 4.1zm-13.8-7.4c8.5 4.9 19.1 4.9 27.6 0l57.1-33c1.4-0.7 2.1-2.1 2.1-3.6 0-1.5-0.7-2.9-2.1-3.6l-57.1-33.1c-8.5-4.9-19.1-4.9-27.6 0l-57.2 33.1c-1.3 0.7-2.1 2.1-2.1 3.6 0 1.5 0.8 2.9 2.1 3.6z"/>
		<g id="&lt;Group&gt;">
			<path id="&lt;Path&gt;" class="s5" d="m391.1 397.4c-15.4 8.9-40.2 8.9-55.6 0-15.3-8.9-15.3-23.2 0-32.1 15.4-8.8 40.2-8.8 55.6 0 15.3 8.9 15.3 23.2 0 32.1z"/>
			<path id="&lt;Path&gt;" class="s19" d="m421.5 219.7h-111.9l10.5 121.2c0 6.7 4.4 13.4 13.3 18.6 17.8 10.2 46.6 10.2 64.4 0 8.9-5.2 13.3-11.9 13.3-18.6z"/>
			<path id="&lt;Path&gt;" class="s13" d="m421.5 219.7h-111.9l1.8 20c2.5 3.2 6 6.4 10.3 9.3 21.4 14.2 56.7 16.9 80.8 6.7l-3.8 88.6c-0.1 3.8-1.5 7.6-4 10.6-3.6 4.2-10.6 9.2-24 12.1 9.9-0.7 19.5-3.2 27.1-7.5 8.9-5.2 13.3-11.9 13.3-18.6l8.4-97.2z"/>
			<path id="&lt;Path&gt;" class="s13" d="m405.1 242.6c-21.8 12.6-57.2 12.6-79.1 0-21.8-12.6-21.8-33.1 0-45.7 21.9-12.6 57.3-12.6 79.1 0 21.9 12.6 21.9 33.1 0 45.7z"/>
			<path id="&lt;Path&gt;" class="s13" d="m399.7 228c-18.9 10.9-49.4 10.9-68.2 0-18.8-10.9-18.8-28.5 0-39.3 18.8-10.9 49.3-10.9 68.2 0 18.8 10.8 18.8 28.4 0 39.3z"/>
			<path id="&lt;Path&gt;" class="s20" d="m424.8 218.2h0.1l-0.1-0.1q0-0.1 0-0.2l-1-10.8-0.1 0.1c-0.5-8.2-6.1-16.3-17-22.6-22.7-13.1-59.5-13.1-82.2 0-11.2 6.4-16.8 14.8-17 23.2h-0.1l-1 9.7q0 0.4-0.1 0.7v0.2c-0.6 9.2 5.2 18.5 17.3 25.5 23.2 13.4 60.8 13.4 83.9 0 12.3-7 18-16.4 17.3-25.7z"/>
			<path id="&lt;Path&gt;" class="s21" d="m399.7 228c-18.9 10.9-49.4 10.9-68.2 0-18.8-10.9-18.8-28.5 0-39.3 18.8-10.9 49.3-10.9 68.2 0 18.8 10.8 18.8 28.4 0 39.3z"/>
			<path id="&lt;Path&gt;" class="s22" d="m397.4 228c-18.8 10.9-49.3 10.9-68.2 0-18.8-10.9-18.8-28.5 0-39.3 18.9-10.9 49.4-10.9 68.2 0 18.8 10.8 18.8 28.4 0 39.3z"/>
			<path id="&lt;Path&gt;" class="s13" d="m337.2 192.8c18.9-10.8 49.4-10.8 68.2 0 0.2 0.2 0.4 0.3 0.7 0.4q-2.8-2.4-6.4-4.5c-18.9-10.9-49.4-10.9-68.2 0-18.6 10.7-18.8 28-0.7 38.9-12-10.8-9.9-25.3 6.4-34.8z"/>
			<path id="&lt;Path&gt;" class="s23" d="m331.5 193.5c18.8-10.9 49.3-10.9 68.2 0 8.3 4.8 12.9 11 13.9 17.3 1.2-7.9-3.5-16.1-13.9-22.1-18.9-10.9-49.4-10.9-68.2 0-10.5 6-15.1 14.2-13.9 22.1 0.9-6.3 5.6-12.5 13.9-17.3z"/>
			<path id="&lt;Compound Path&gt;" fill-rule="evenodd" class="s24" d="m406.7 232.5c-23 13-59.9 12.7-82.6-0.7-22.7-13.4-22.5-34.7 0.4-47.7 22.9-12.9 59.9-12.6 82.6 0.8 22.7 13.3 22.5 34.7-0.4 47.6zm-7-43.8c-18.9-10.9-49.4-10.9-68.2 0-18.8 10.8-18.8 28.4 0 39.3 6.3 3.6 13.9 6 21.9 7.2l0.9-2.8c0.4-1.2 1.4-2 2.6-2h17.3c1.3 0 2.3 0.8 2.7 2l0.9 2.8c8-1.2 15.6-3.6 21.9-7.2 18.8-10.9 18.8-28.5 0-39.3z"/>
			<g id="&lt;Group&gt;">
				<path id="&lt;Path&gt;" class="s1" d="m399.7 186.6c-18.9-10.9-49.4-10.9-68.2 0-9.8 5.7-14.5 13.3-14 20.7 0.4-6.8 5.1-13.5 14-18.6 18.8-10.9 49.3-10.9 68.2 0 8.9 5.1 13.6 11.8 14 18.6 0.5-7.4-4.2-15-14-20.7z"/>
				<path id="&lt;Path&gt;" class="s1" d="m406.7 230.5c-23 12.9-59.9 12.6-82.6-0.8-10.8-6.3-16.4-14.5-16.8-22.7-0.5 8.9 5.1 17.9 16.8 24.8 22.7 13.4 59.6 13.7 82.6 0.7 12-6.8 17.7-15.9 17.2-24.9-0.4 8.4-6.1 16.6-17.2 22.9z"/>
			</g>
			<path id="&lt;Path&gt;" class="s25" d="m370.8 236.7h-10.4c-0.7 0-1.3-0.6-1.3-1.3v-0.2c0-0.7 0.6-1.3 1.3-1.3h10.4c0.7 0 1.3 0.6 1.3 1.3v0.2c0 0.7-0.6 1.3-1.3 1.3z"/>
			<path id="&lt;Path&gt;" class="s26" d="m370.8 233.9h-10.4c-0.7 0-1.3 0.6-1.3 1.3v0.2q0 0.2 0.1 0.4c0.1-0.6 0.6-1 1.2-1h10.4c0.6 0 1 0.4 1.2 1q0.1-0.2 0.1-0.4v-0.2c0-0.7-0.6-1.3-1.3-1.3z"/>
			<g id="&lt;Group&gt;">
				<path id="&lt;Path&gt;" class="s16" d="m367.2 328.4c-1.3 4.8-6.2 7.6-11 6.4-4.7-1.3-7.6-6.2-6.3-11 1.3-4.7 5.8-6.1 10.5-4.8 4.8 1.2 8 4.7 6.8 9.4z"/>
				<path id="&lt;Path&gt;" class="s16" d="m374.2 319c-1.8 1.8-4.1 1.5-5.6 0-1.5-1.6-1.7-3.9 0.1-5.7 1.8-1.7 5.2-2.6 6.7-1 1.6 1.5 0.6 4.9-1.2 6.7z"/>
				<path id="&lt;Path&gt;" class="s16" d="m364.9 311.5c-0.5 2.5-2.5 3.7-4.6 3.3-2.2-0.4-3.7-2.2-3.2-4.7 0.4-2.4 2.7-5.1 4.8-4.7 2.2 0.3 3.4 3.6 3 6.1z"/>
				<path id="&lt;Path&gt;" class="s16" d="m353.3 310.4c1 2.3-0.1 4.4-2.1 5.2-2 0.8-4.2 0.1-5.2-2.2-0.9-2.3-0.5-5.8 1.6-6.7 2-0.8 4.8 1.4 5.7 3.7z"/>
			</g>
		</g>
		<path id="&lt;Path&gt;" class="s27" d="m369.3 235.3c0 0 31.2-10.4 18.6-46.4-12.7-35.9-37.4-46.9-27.4-75.6 0 0-15.6 23.2-1 54.7 14.5 31.5 17.7 27.9 17.5 43-0.2 17.9-14.6 24.3-14.6 24.3z"/>
		<path id="&lt;Path&gt;" class="s27" d="m372.1 118.3c0 0-3.3-21.5 16.9-43.2 0 0-17.9 39.8-12 59.5 0 0-4.7-12.5-4.9-16.3z"/>
	</g>
</svg>